<?xml version="1.0" encoding="UTF-8"?>
<svg id="_レイヤー_2" data-name="レイヤー_2" xmlns="http://www.w3.org/2000/svg" viewBox="0 0 59.51 80.83">
  <defs>
    <style>
      .cls-1 {
        fill: #fff;
      }
    </style>
  </defs>
  <g id="_レイヤー_4" data-name="レイヤー_4">
    <g>
      <path class="cls-1" d="M29.75,0h0C19.33,0,10.87,8.45,10.87,18.88s8.45,18.88,18.88,18.88h0c10.43,0,18.88-8.45,18.88-18.88S40.18,0,29.75,0ZM29.75,34.1c-8.41,0-15.22-6.81-15.22-15.22S21.35,3.66,29.75,3.66s15.22,6.81,15.22,15.22-6.81,15.22-15.22,15.22Z"/>
      <path class="cls-1" d="M43.4,36.35c-3.77,2.95-8.5,4.72-13.65,4.72s-9.88-1.77-13.65-4.72C6.62,40.51,0,49.97,0,60.99v15.14c0,2.59,2.1,4.7,4.7,4.7h50.12c2.59,0,4.7-2.1,4.7-4.7v-15.14c0-11.02-6.62-20.48-16.1-24.65Z"/>
    </g>
  </g>
</svg>