<?xml version="1.0" encoding="UTF-8"?>
<svg id="_レイヤー_2" data-name="レイヤー_2" xmlns="http://www.w3.org/2000/svg" viewBox="0 0 89.33 83.04">
  <defs>
    <style>
      .cls-1 {
        fill: #fff;
      }
    </style>
  </defs>
  <g id="_レイヤー_4" data-name="レイヤー_4">
    <g>
      <path class="cls-1" d="M85.41,18.48h-10.97v-3.46h3.56c.92,0,1.71-.73,1.85-1.72l1.54-10.97c.17-1.23-.7-2.33-1.85-2.33h-14.28c-1.15,0-2.02,1.11-1.85,2.33l.48,3.43c-2.59.43-5.02,1.86-6.74,4.14-.46.61-.3,1.53.35,1.9l.68.39c.48.28,1.07.13,1.42-.32,1.23-1.56,2.94-2.53,4.76-2.8l.59,4.23c.14.99.92,1.72,1.85,1.72h3.49v3.46h-10.89c-2.31,0-4.12,2.1-3.9,4.52l5.23,56.32c.2,2.11,1.88,3.72,3.9,3.72h15.54c2.02,0,3.7-1.61,3.9-3.72l5.23-56.32c.22-2.42-1.59-4.52-3.9-4.52ZM82.54,73.49c-.17,1.83-1.63,3.23-3.38,3.23h-13.49c-1.75,0-3.21-1.4-3.38-3.23l-4.54-48.88c-.2-2.1,1.38-3.92,3.38-3.92h9.45s3.6,0,3.6,0h0s9.52,0,9.52,0c2.01,0,3.58,1.82,3.38,3.92l-4.54,48.88Z"/>
      <path class="cls-1" d="M50.68,35.12v-16.01c0-9.8-7.11-17.77-15.85-17.77h-1.13c-1.81,0-3.28,1.62-3.28,3.62v30.17c-.76.36-1.29,1.19-1.29,2.15v43.44c0,1.3.97,2.35,2.16,2.35h18.52c1.19,0,2.16-1.05,2.16-2.35v-43.44c0-.96-.53-1.78-1.29-2.15ZM48.87,34.9h-16.62V4.95c0-.23.04-.44.11-.64.11-.3.3-.55.53-.72s.51-.28.82-.28h1.13c4.84,0,9.12,2.76,11.64,6.97,1.51,2.52,2.4,5.56,2.4,8.83v15.8Z"/>
      <path class="cls-1" d="M20.46,71.56l5.62-45.07c.15-1.22-.71-2.31-1.82-2.31H1.84c-1.11,0-1.97,1.09-1.82,2.31l5.62,45.07c.13,1,.9,1.75,1.82,1.75h-.43c-1.1,0-2,.97-2,2.17v5.39c0,1.2.9,2.17,2,2.17h12.04c1.1,0,2-.97,2-2.17v-5.39c0-1.2-.9-2.17-2-2.17h-.43c.92,0,1.69-.75,1.82-1.75ZM17.92,71.26h-9.74c-.61-.14-1.09-.69-1.18-1.4l-2.78-22.27c-.09-.71.6-1.19,1.18-.86.43.25.92.39,1.45.39,1.01,0,1.91-.52,2.47-1.33.32-.46.94-.46,1.26,0,.57.81,1.46,1.33,2.47,1.33s1.91-.52,2.47-1.33c.32-.46.94-.46,1.26,0,.57.81,1.46,1.33,2.47,1.33.52,0,1.02-.14,1.45-.39.58-.33,1.27.15,1.18.86l-2.78,22.27c-.09.71-.57,1.26-1.18,1.4Z"/>
    </g>
  </g>
</svg>