<?xml version="1.0" encoding="UTF-8"?>
<svg id="_レイヤー_2" data-name="レイヤー_2" xmlns="http://www.w3.org/2000/svg" viewBox="0 0 67.65 69.95">
  <defs>
    <style>
      .cls-1 {
        fill: #fff;
      }
    </style>
  </defs>
  <g id="_レイヤー_4" data-name="レイヤー_4">
    <path class="cls-1" d="M65.94,34.5c-.93-2.63-4.73-12.08-6.41-15.01-.21-.36-.9-1.53-.53-2.7.15-.48.43-.78.59-.97,0,0,.99-1.12,2.18-3.73,1.01-2.22.24-4.73.03-5.4C60.51,2.52,56.2.03,52.71,0c-.55,0-1.58-.01-2.79.42-1.32.48-1.63,1.04-3.87,2.35-1.88,1.1-2.41,1.15-2.72,1.15s-.84-.05-2.72-1.15c-2.41-1.41-2.6-1.97-3.87-2.35C35.37,0,33.95,0,33.95,0c-.04,0-.07,0-.09,0,0,0-1.42,0-2.79.42-1.27.38-1.46.94-3.87,2.35-1.88,1.1-2.41,1.15-2.72,1.15-.31,0-.84-.05-2.72-1.15-2.23-1.31-2.55-1.88-3.86-2.35C16.68-.01,15.65,0,15.1,0c-3.49.03-7.81,2.52-9.1,6.69-.21.67-.99,3.18.03,5.4,1.19,2.61,2.18,3.73,2.18,3.73.17.19.44.49.59.97.37,1.17-.32,2.34-.53,2.7-1.68,2.94-5.46,12.21-6.57,15.47-.74,2.17-2.32,7.01-1.45,13.04.37,2.55,1.15,5.29,2.62,7.97,7.84,14.36,27.97,14.01,31.94,13.95,5.33-.09,21.51-.36,29.18-12.74,2.17-3.5,3.04-7.52,3.1-7.81,1.51-7.12-.53-13.08-1.16-14.87ZM49.5,41.74l-9.62,3.56-3.56,9.62c-.86,2.32-4.14,2.32-5,0l-3.56-9.62-9.62-3.56c-2.32-.86-2.32-4.14,0-5l9.62-3.56,3.56-9.62c.86-2.32,4.14-2.32,5,0l3.56,9.62,9.62,3.56c2.32.86,2.32,4.14,0,5Z"/>
  </g>
</svg>