<?xml version="1.0" encoding="UTF-8"?>
<svg id="_レイヤー_2" data-name="レイヤー_2" xmlns="http://www.w3.org/2000/svg" xmlns:xlink="http://www.w3.org/1999/xlink" viewBox="0 0 93.07 93.07">
  <defs>
    <style>
      .cls-1 {
        fill: #c0ceff;
      }

      .cls-2 {
        fill: url(#_名称未設定グラデーション_7);
      }

      .cls-3 {
        fill: #fff;
      }

      .cls-4 {
        fill: none;
        stroke: #fff;
        stroke-linecap: round;
        stroke-linejoin: round;
        stroke-width: 3px;
      }

      .cls-5 {
        fill: #423f48;
      }

      .cls-6 {
        fill: #ffb6ce;
      }

      .cls-7 {
        fill: #e5bdff;
      }
    </style>
    <linearGradient id="_名称未設定グラデーション_7" data-name="名称未設定グラデーション 7" x1="1.5" y1="46.53" x2="91.57" y2="46.53" gradientUnits="userSpaceOnUse">
      <stop offset="0" stop-color="#ffb6ce"/>
      <stop offset=".5" stop-color="#e5bdff"/>
      <stop offset="1" stop-color="#c0ceff"/>
    </linearGradient>
  </defs>
  <g id="_レイヤー_4" data-name="レイヤー_4">
    <g>
      <g>
        <path class="cls-6" d="M46.53,83.69c-20.49,0-37.15-16.67-37.15-37.15S26.05,9.38,46.53,9.38s37.15,16.67,37.15,37.15-16.67,37.15-37.15,37.15Z"/>
        <path class="cls-5" d="M46.53,10.88c19.69,0,35.65,15.96,35.65,35.65h0c0,19.69-15.96,35.65-35.65,35.65h0c-19.69,0-35.65-15.96-35.65-35.65h0c0-19.69,15.96-35.65,35.65-35.65h0M46.53,7.88C25.22,7.88,7.88,25.22,7.88,46.53s17.34,38.65,38.65,38.65,38.65-17.34,38.65-38.65S67.85,7.88,46.53,7.88h0Z"/>
      </g>
      <g>
        <path class="cls-7" d="M46.53,75.74c-16.1,0-29.21-13.1-29.21-29.21s13.1-29.21,29.21-29.21,29.21,13.1,29.21,29.21-13.1,29.21-29.21,29.21Z"/>
        <path class="cls-3" d="M46.53,18.33c15.58,0,28.21,12.63,28.21,28.21h0c0,15.58-12.63,28.21-28.21,28.21h0c-15.58,0-28.21-12.63-28.21-28.21h0c0-15.58,12.63-28.21,28.21-28.21h0M46.53,16.33c-16.66,0-30.21,13.55-30.21,30.21s13.55,30.21,30.21,30.21,30.21-13.55,30.21-30.21-13.55-30.21-30.21-30.21h0Z"/>
      </g>
      <g>
        <path class="cls-1" d="M46.53,69c-12.39,0-22.47-10.08-22.47-22.47s10.08-22.47,22.47-22.47,22.47,10.08,22.47,22.47-10.08,22.47-22.47,22.47Z"/>
        <path class="cls-3" d="M46.53,25.07c11.86,0,21.47,9.61,21.47,21.47h0c0,11.86-9.61,21.47-21.47,21.47h0c-11.86,0-21.47-9.61-21.47-21.47h0c0-11.86,9.61-21.47,21.47-21.47h0M46.53,23.07c-12.94,0-23.47,10.53-23.47,23.47s10.53,23.47,23.47,23.47,23.47-10.53,23.47-23.47-10.53-23.47-23.47-23.47h0Z"/>
      </g>
      <rect class="cls-3" x="27.58" y="27.58" width="37.92" height="37.92" rx="18.96" ry="18.96"/>
      <g>
        <path class="cls-4" d="M2.72,45.06l26.47-4.93c5.55-1.04,9.9-5.38,10.93-10.93l4.93-26.47c.3-1.63,2.64-1.63,2.95,0l4.93,26.47c1.04,5.55,5.38,9.9,10.93,10.93l26.47,4.93c1.63.3,1.63,2.64,0,2.95l-26.47,4.93c-5.55,1.04-9.9,5.38-10.93,10.93l-4.93,26.47c-.3,1.63-2.64,1.63-2.95,0l-4.93-26.47c-1.04-5.55-5.38-9.9-10.93-10.93l-26.47-4.93c-1.63-.3-1.63-2.64,0-2.95Z"/>
        <path class="cls-2" d="M2.72,45.06l26.47-4.93c5.55-1.04,9.9-5.38,10.93-10.93l4.93-26.47c.3-1.63,2.64-1.63,2.95,0l4.93,26.47c1.04,5.55,5.38,9.9,10.93,10.93l26.47,4.93c1.63.3,1.63,2.64,0,2.95l-26.47,4.93c-5.55,1.04-9.9,5.38-10.93,10.93l-4.93,26.47c-.3,1.63-2.64,1.63-2.95,0l-4.93-26.47c-1.04-5.55-5.38-9.9-10.93-10.93l-26.47-4.93c-1.63-.3-1.63-2.64,0-2.95Z"/>
      </g>
    </g>
  </g>
</svg>