<?xml version="1.0" encoding="UTF-8"?>
<svg id="_レイヤー_2" data-name="レイヤー_2" xmlns="http://www.w3.org/2000/svg" viewBox="0 0 86.41 83.04">
  <defs>
    <style>
      .cls-1 {
        fill: #fff;
      }
    </style>
  </defs>
  <g id="_レイヤー_4" data-name="レイヤー_4">
    <path class="cls-1" d="M85.27,38.98L48.94,2.39c-3.16-3.19-8.32-3.19-11.48,0L1.14,38.98c-2.44,2.46-.7,6.64,2.76,6.64h10.55v31.75c0,3.14,2.54,5.68,5.68,5.68h46.14c3.14,0,5.68-2.54,5.68-5.68v-31.75h10.55c3.46,0,5.21-4.18,2.76-6.64ZM58.88,54.06l-9.62,3.56-3.56,9.62c-.86,2.32-4.14,2.32-5,0l-3.56-9.62-9.62-3.56c-2.32-.86-2.32-4.14,0-5l9.62-3.56,3.56-9.62c.86-2.32,4.14-2.32,5,0l3.56,9.62,9.62,3.56c2.32.86,2.32,4.14,0,5Z"/>
  </g>
</svg>