<?xml version="1.0" encoding="UTF-8"?>
<svg id="_レイヤー_2" data-name="レイヤー_2" xmlns="http://www.w3.org/2000/svg" xmlns:xlink="http://www.w3.org/1999/xlink" viewBox="0 0 76.42 97.14">
  <defs>
    <style>
      .cls-1 {
        fill: none;
        stroke: #fff;
        stroke-miterlimit: 10;
        stroke-width: 3px;
      }

      .cls-2 {
        fill: url(#_名称未設定グラデーション_7);
      }

      .cls-3 {
        fill: #fff;
      }

      .cls-4 {
        fill: #423f48;
      }
    </style>
    <linearGradient id="_名称未設定グラデーション_7" data-name="名称未設定グラデーション 7" x1="372.46" y1="96.85" x2="372.46" y2="39.83" gradientTransform="translate(105.92 -340.95) rotate(90)" gradientUnits="userSpaceOnUse">
      <stop offset="0" stop-color="#ffb6ce"/>
      <stop offset=".5" stop-color="#e5bdff"/>
      <stop offset="1" stop-color="#c0ceff"/>
    </linearGradient>
  </defs>
  <g id="_レイヤー_3" data-name="レイヤー_3">
    <g>
      <g>
        <path id="star1" class="cls-2" d="M60.58,59.65l-21.38-9.83c-1.03-.47-2.21-.47-3.24,0l-21.38,9.83c-3.27,1.5-6.65-1.87-5.14-5.14l9.83-21.38c.47-1.03.47-2.21,0-3.24L9.44,8.51c-1.5-3.27,1.87-6.65,5.14-5.14l21.38,9.83c1.03.47,2.21.47,3.24,0L60.58,3.37c3.27-1.5,6.65,1.87,5.14,5.14l-9.83,21.38c-.47,1.03-.47,2.21,0,3.24l9.83,21.38c1.5,3.27-1.87,6.65-5.14,5.14Z"/>
        <path id="star1-2" data-name="star1" class="cls-3" d="M62.22,3c2.63,0,4.76,2.79,3.5,5.51l-9.83,21.38c-.47,1.03-.47,2.21,0,3.24l9.83,21.38c1.25,2.72-.87,5.51-3.5,5.51-.53,0-1.09-.11-1.64-.37l-21.38-9.83c-.51-.24-1.07-.35-1.62-.35s-1.11.12-1.62.35l-21.38,9.83c-.55.25-1.11.37-1.64.37-2.63,0-4.76-2.79-3.5-5.51l9.83-21.38c.47-1.03.47-2.21,0-3.24L9.44,8.51c-1.25-2.72.87-5.51,3.5-5.51.53,0,1.09.11,1.64.37l21.38,9.83c.51.24,1.07.35,1.62.35s1.11-.12,1.62-.35L60.58,3.37c.55-.25,1.11-.37,1.64-.37M62.22,0h0c-.99,0-1.97.22-2.89.64l-21.38,9.83c-.12.05-.24.08-.37.08s-.25-.03-.37-.08L15.84.64c-.93-.43-1.9-.64-2.89-.64-2.34,0-4.5,1.2-5.79,3.2-1.26,1.97-1.43,4.42-.44,6.56l9.83,21.38c.11.23.11.5,0,.73l-9.83,21.38c-.99,2.14-.82,4.6.44,6.56,1.29,2.01,3.45,3.2,5.79,3.2.99,0,1.97-.22,2.89-.64l21.38-9.83c.12-.05.24-.08.37-.08s.25.03.37.08l21.38,9.83c.93.43,1.9.64,2.89.64,2.34,0,4.5-1.2,5.79-3.2,1.26-1.97,1.43-4.42.44-6.56l-9.83-21.38c-.11-.23-.11-.5,0-.73l9.83-21.38c.99-2.14.82-4.6-.44-6.56-1.29-2.01-3.45-3.2-5.79-3.2h0Z"/>
      </g>
      <g>
        <g>
          <path class="cls-4" d="M14.59,95.43c-.07.34-.02.26-.22.38-1.13.74-3.29,1.3-5.02,1.3-4.94,0-9.36-2.95-9.36-8.91,0-4.61,3.84-8.57,8.98-8.57,2.11,0,3.36.43,4.82.43h.22c.58,0,.65.02.67.58,0,.67.36,2.42.38,3.31,0,.14-.24.22-.41.22-.12,0-.22-.02-.24-.1-.94-2.62-2.98-3.67-5.54-3.67-3.31,0-6.72,2.59-6.72,7.8s3.5,8.09,7.42,8.09c1.68,0,3.84-1.25,4.97-3.74.02-.07.14-.1.24-.1.22,0,.48.12.48.31,0,.05,0,.12-.05.17-.38.65-.5,1.97-.62,2.5Z"/>
          <path class="cls-4" d="M28.94,96.59c-.1.22-.1.24-.5.24-.02,0-3.84-.14-7.03-.14-1.61,0-3.07.02-3.82.14h-.05c-.14,0-.24-.12-.24-.26s.07-.29.24-.41c2.11-.19,2.09-.14,2.14-4.34.02-1.08.05-2.18.05-3.29s-.02-2.26-.05-3.34c-.05-4.1.26-4.25-2.26-4.49-.12-.1-.19-.26-.19-.38,0-.17.1-.29.26-.29,0,0,1.75.12,3.55.12.98,0,1.97-.02,2.71-.14h.05c.12,0,.19.12.19.26s-.07.34-.22.46c-2.47.29-2.23.34-2.33,4.46,0,.91-.02,2.14-.02,3.38s.02,2.54.02,3.62c.07,3.02.1,3.55,2.23,3.79h.36c3.46,0,4.34-.94,5.64-2.93.05-.05.12-.07.22-.07.19,0,.38.07.38.17,0,.12-.36,1.27-1.34,3.43Z"/>
          <path class="cls-4" d="M40.27,97.14c-5.47,0-8.59-4.03-8.59-8.66,0-4.9,3.7-8.86,8.66-8.86s8.5,3.96,8.5,8.86-3.05,8.66-8.57,8.66ZM40.2,80.38c-4.49,0-6.31,4.06-6.31,7.63,0,1.44.46,8.38,6.55,8.38,4.66,0,6.22-3.91,6.22-7.63,0-4.2-1.99-8.38-6.46-8.38Z"/>
          <path class="cls-4" d="M55.22,97.14c-1.18,0-2.45-.24-3.53-.79-.19-.1-.29-.24-.29-.55-.02-.67-.22-2.52-.22-2.86-.02-.07.14-.12.29-.12s.29.05.29.1c.41,2.18,1.9,3.55,3.38,3.55,2.18,0,3.58-1.9,3.6-3.94,0-1.15-.98-2.4-1.99-3.1-.46-.31-.94-.62-1.42-.96-1.66-1.13-3.22-2.62-3.22-4.73,0-2.59,2.23-4.08,4.99-4.08,1.13,0,2.14.24,2.47.26.38,0,.38.14.74,2.98,0,.07-.26.22-.43.22-.07,0-.12-.02-.14-.1-.41-1.49-1.25-2.67-2.95-2.67-1.61,0-3.1,1.2-3.1,2.78,0,1.32,1.01,2.35,2.16,3.12.43.29.91.58,1.39.89,1.63,1.08,3.24,2.71,3.24,5.11s-1.85,4.87-5.28,4.87Z"/>
          <path class="cls-4" d="M74.98,96.59c-.05.12-.19.22-.58.22,0,0-3.58-.07-6.86-.07-1.82,0-3.58.02-4.54.1h-.02c-.19,0-.29-.12-.29-.26,0-.12.07-.29.24-.41,1.61-.14,1.87-.22,2.06-1.01.14-.55.17-3.72.17-9.86,0-3.98-.05-4.61-2.33-4.61-.14-.1-.22-.26-.22-.38,0-.17.07-.29.22-.29h.05c.62.07,1.78.1,3.1.1,2.98,0,6.84-.12,7.42-.12h.07c.12,0,.43,0,.43.24v.02c0,.1-.02.19-.02.31,0,.7.17,1.66.17,2.45v.14c0,.19-.19.29-.36.29-.1,0-.19-.02-.22-.1-.96-2.4-1.85-2.64-4.39-2.64-.58,0-1.08.02-1.54.12-.67.07-.67.91-.67,3.98,0,.74.02,1.54.02,2.23,0,.36.31.41,1.46.41.36,0,.67-.02,1.01-.07.77-.07,2.14.12,2.52-2.04.02-.14.22-.24.38-.24s.31.07.31.26v.05c-.1.6-.12,1.37-.12,2.11,0,1.49.12,2.9.12,2.9v.02c0,.14-.14.19-.31.19-.19,0-.36-.07-.38-.22-.17-2.23-1.85-2.28-3.6-2.28-1.34,0-1.39,0-1.39.43v1.13c0,5.5,0,5.93,2.45,6.36.24.05.5.07.84.07,2.3,0,3.96-.7,5.66-3.26.05-.07.12-.12.19-.12.19,0,.38.17.38.31v.02c-.29,1.01-1.2,2.81-1.44,3.5Z"/>
        </g>
        <g>
          <path class="cls-1" d="M14.59,95.43c-.07.34-.02.26-.22.38-1.13.74-3.29,1.3-5.02,1.3-4.94,0-9.36-2.95-9.36-8.91,0-4.61,3.84-8.57,8.98-8.57,2.11,0,3.36.43,4.82.43h.22c.58,0,.65.02.67.58,0,.67.36,2.42.38,3.31,0,.14-.24.22-.41.22-.12,0-.22-.02-.24-.1-.94-2.62-2.98-3.67-5.54-3.67-3.31,0-6.72,2.59-6.72,7.8s3.5,8.09,7.42,8.09c1.68,0,3.84-1.25,4.97-3.74.02-.07.14-.1.24-.1.22,0,.48.12.48.31,0,.05,0,.12-.05.17-.38.65-.5,1.97-.62,2.5Z"/>
          <path class="cls-1" d="M28.94,96.59c-.1.22-.1.24-.5.24-.02,0-3.84-.14-7.03-.14-1.61,0-3.07.02-3.82.14h-.05c-.14,0-.24-.12-.24-.26s.07-.29.24-.41c2.11-.19,2.09-.14,2.14-4.34.02-1.08.05-2.18.05-3.29s-.02-2.26-.05-3.34c-.05-4.1.26-4.25-2.26-4.49-.12-.1-.19-.26-.19-.38,0-.17.1-.29.26-.29,0,0,1.75.12,3.55.12.98,0,1.97-.02,2.71-.14h.05c.12,0,.19.12.19.26s-.07.34-.22.46c-2.47.29-2.23.34-2.33,4.46,0,.91-.02,2.14-.02,3.38s.02,2.54.02,3.62c.07,3.02.1,3.55,2.23,3.79h.36c3.46,0,4.34-.94,5.64-2.93.05-.05.12-.07.22-.07.19,0,.38.07.38.17,0,.12-.36,1.27-1.34,3.43Z"/>
          <path class="cls-1" d="M40.27,97.14c-5.47,0-8.59-4.03-8.59-8.66,0-4.9,3.7-8.86,8.66-8.86s8.5,3.96,8.5,8.86-3.05,8.66-8.57,8.66ZM40.2,80.38c-4.49,0-6.31,4.06-6.31,7.63,0,1.44.46,8.38,6.55,8.38,4.66,0,6.22-3.91,6.22-7.63,0-4.2-1.99-8.38-6.46-8.38Z"/>
          <path class="cls-1" d="M55.22,97.14c-1.18,0-2.45-.24-3.53-.79-.19-.1-.29-.24-.29-.55-.02-.67-.22-2.52-.22-2.86-.02-.07.14-.12.29-.12s.29.05.29.1c.41,2.18,1.9,3.55,3.38,3.55,2.18,0,3.58-1.9,3.6-3.94,0-1.15-.98-2.4-1.99-3.1-.46-.31-.94-.62-1.42-.96-1.66-1.13-3.22-2.62-3.22-4.73,0-2.59,2.23-4.08,4.99-4.08,1.13,0,2.14.24,2.47.26.38,0,.38.14.74,2.98,0,.07-.26.22-.43.22-.07,0-.12-.02-.14-.1-.41-1.49-1.25-2.67-2.95-2.67-1.61,0-3.1,1.2-3.1,2.78,0,1.32,1.01,2.35,2.16,3.12.43.29.91.58,1.39.89,1.63,1.08,3.24,2.71,3.24,5.11s-1.85,4.87-5.28,4.87Z"/>
          <path class="cls-1" d="M74.98,96.59c-.05.12-.19.22-.58.22,0,0-3.58-.07-6.86-.07-1.82,0-3.58.02-4.54.1h-.02c-.19,0-.29-.12-.29-.26,0-.12.07-.29.24-.41,1.61-.14,1.87-.22,2.06-1.01.14-.55.17-3.72.17-9.86,0-3.98-.05-4.61-2.33-4.61-.14-.1-.22-.26-.22-.38,0-.17.07-.29.22-.29h.05c.62.07,1.78.1,3.1.1,2.98,0,6.84-.12,7.42-.12h.07c.12,0,.43,0,.43.24v.02c0,.1-.02.19-.02.31,0,.7.17,1.66.17,2.45v.14c0,.19-.19.29-.36.29-.1,0-.19-.02-.22-.1-.96-2.4-1.85-2.64-4.39-2.64-.58,0-1.08.02-1.54.12-.67.07-.67.91-.67,3.98,0,.74.02,1.54.02,2.23,0,.36.31.41,1.46.41.36,0,.67-.02,1.01-.07.77-.07,2.14.12,2.52-2.04.02-.14.22-.24.38-.24s.31.07.31.26v.05c-.1.6-.12,1.37-.12,2.11,0,1.49.12,2.9.12,2.9v.02c0,.14-.14.19-.31.19-.19,0-.36-.07-.38-.22-.17-2.23-1.85-2.28-3.6-2.28-1.34,0-1.39,0-1.39.43v1.13c0,5.5,0,5.93,2.45,6.36.24.05.5.07.84.07,2.3,0,3.96-.7,5.66-3.26.05-.07.12-.12.19-.12.19,0,.38.17.38.31v.02c-.29,1.01-1.2,2.81-1.44,3.5Z"/>
        </g>
        <g>
          <path class="cls-4" d="M14.59,95.43c-.07.34-.02.26-.22.38-1.13.74-3.29,1.3-5.02,1.3-4.94,0-9.36-2.95-9.36-8.91,0-4.61,3.84-8.57,8.98-8.57,2.11,0,3.36.43,4.82.43h.22c.58,0,.65.02.67.58,0,.67.36,2.42.38,3.31,0,.14-.24.22-.41.22-.12,0-.22-.02-.24-.1-.94-2.62-2.98-3.67-5.54-3.67-3.31,0-6.72,2.59-6.72,7.8s3.5,8.09,7.42,8.09c1.68,0,3.84-1.25,4.97-3.74.02-.07.14-.1.24-.1.22,0,.48.12.48.31,0,.05,0,.12-.05.17-.38.65-.5,1.97-.62,2.5Z"/>
          <path class="cls-4" d="M28.94,96.59c-.1.22-.1.24-.5.24-.02,0-3.84-.14-7.03-.14-1.61,0-3.07.02-3.82.14h-.05c-.14,0-.24-.12-.24-.26s.07-.29.24-.41c2.11-.19,2.09-.14,2.14-4.34.02-1.08.05-2.18.05-3.29s-.02-2.26-.05-3.34c-.05-4.1.26-4.25-2.26-4.49-.12-.1-.19-.26-.19-.38,0-.17.1-.29.26-.29,0,0,1.75.12,3.55.12.98,0,1.97-.02,2.71-.14h.05c.12,0,.19.12.19.26s-.07.34-.22.46c-2.47.29-2.23.34-2.33,4.46,0,.91-.02,2.14-.02,3.38s.02,2.54.02,3.62c.07,3.02.1,3.55,2.23,3.79h.36c3.46,0,4.34-.94,5.64-2.93.05-.05.12-.07.22-.07.19,0,.38.07.38.17,0,.12-.36,1.27-1.34,3.43Z"/>
          <path class="cls-4" d="M40.27,97.14c-5.47,0-8.59-4.03-8.59-8.66,0-4.9,3.7-8.86,8.66-8.86s8.5,3.96,8.5,8.86-3.05,8.66-8.57,8.66ZM40.2,80.38c-4.49,0-6.31,4.06-6.31,7.63,0,1.44.46,8.38,6.55,8.38,4.66,0,6.22-3.91,6.22-7.63,0-4.2-1.99-8.38-6.46-8.38Z"/>
          <path class="cls-4" d="M55.22,97.14c-1.18,0-2.45-.24-3.53-.79-.19-.1-.29-.24-.29-.55-.02-.67-.22-2.52-.22-2.86-.02-.07.14-.12.29-.12s.29.05.29.1c.41,2.18,1.9,3.55,3.38,3.55,2.18,0,3.58-1.9,3.6-3.94,0-1.15-.98-2.4-1.99-3.1-.46-.31-.94-.62-1.42-.96-1.66-1.13-3.22-2.62-3.22-4.73,0-2.59,2.23-4.08,4.99-4.08,1.13,0,2.14.24,2.47.26.38,0,.38.14.74,2.98,0,.07-.26.22-.43.22-.07,0-.12-.02-.14-.1-.41-1.49-1.25-2.67-2.95-2.67-1.61,0-3.1,1.2-3.1,2.78,0,1.32,1.01,2.35,2.16,3.12.43.29.91.58,1.39.89,1.63,1.08,3.24,2.71,3.24,5.11s-1.85,4.87-5.28,4.87Z"/>
          <path class="cls-4" d="M74.98,96.59c-.05.12-.19.22-.58.22,0,0-3.58-.07-6.86-.07-1.82,0-3.58.02-4.54.1h-.02c-.19,0-.29-.12-.29-.26,0-.12.07-.29.24-.41,1.61-.14,1.87-.22,2.06-1.01.14-.55.17-3.72.17-9.86,0-3.98-.05-4.61-2.33-4.61-.14-.1-.22-.26-.22-.38,0-.17.07-.29.22-.29h.05c.62.07,1.78.1,3.1.1,2.98,0,6.84-.12,7.42-.12h.07c.12,0,.43,0,.43.24v.02c0,.1-.02.19-.02.31,0,.7.17,1.66.17,2.45v.14c0,.19-.19.29-.36.29-.1,0-.19-.02-.22-.1-.96-2.4-1.85-2.64-4.39-2.64-.58,0-1.08.02-1.54.12-.67.07-.67.91-.67,3.98,0,.74.02,1.54.02,2.23,0,.36.31.41,1.46.41.36,0,.67-.02,1.01-.07.77-.07,2.14.12,2.52-2.04.02-.14.22-.24.38-.24s.31.07.31.26v.05c-.1.6-.12,1.37-.12,2.11,0,1.49.12,2.9.12,2.9v.02c0,.14-.14.19-.31.19-.19,0-.36-.07-.38-.22-.17-2.23-1.85-2.28-3.6-2.28-1.34,0-1.39,0-1.39.43v1.13c0,5.5,0,5.93,2.45,6.36.24.05.5.07.84.07,2.3,0,3.96-.7,5.66-3.26.05-.07.12-.12.19-.12.19,0,.38.17.38.31v.02c-.29,1.01-1.2,2.81-1.44,3.5Z"/>
        </g>
      </g>
    </g>
  </g>
</svg>