<?xml version="1.0" encoding="UTF-8"?>
<svg id="_レイヤー_2" data-name="レイヤー_2" xmlns="http://www.w3.org/2000/svg" xmlns:xlink="http://www.w3.org/1999/xlink" viewBox="0 0 83.39 107.47">
  <defs>
    <style>
      .cls-1 {
        fill: none;
        stroke: #fff;
        stroke-miterlimit: 10;
        stroke-width: 3px;
      }

      .cls-2 {
        fill: url(#_名称未設定グラデーション_7);
      }

      .cls-3 {
        fill: #fff;
      }

      .cls-4 {
        fill: #423f48;
      }
    </style>
    <linearGradient id="_名称未設定グラデーション_7" data-name="名称未設定グラデーション 7" x1="337.44" y1="256.99" x2="394.46" y2="256.99" gradientTransform="translate(-35.36 -398.79) rotate(45)" gradientUnits="userSpaceOnUse">
      <stop offset="0" stop-color="#ffb6ce"/>
      <stop offset=".5" stop-color="#e5bdff"/>
      <stop offset="1" stop-color="#c0ceff"/>
    </linearGradient>
  </defs>
  <g id="_レイヤー_3" data-name="レイヤー_3">
    <g>
      <g>
        <path id="star1" class="cls-2" d="M77.85,45.33l-22.07,8.17c-1.06.39-1.9,1.23-2.29,2.29l-8.17,22.07c-1.25,3.38-6.03,3.38-7.28,0l-8.17-22.07c-.39-1.06-1.23-1.9-2.29-2.29l-22.07-8.17c-3.38-1.25-3.38-6.03,0-7.28l22.07-8.17c1.06-.39,1.9-1.23,2.29-2.29l8.17-22.07c1.25-3.38,6.03-3.38,7.28,0l8.17,22.07c.39,1.06,1.23,1.9,2.29,2.29l22.07,8.17c3.38,1.25,3.38,6.03,0,7.28Z"/>
        <path id="star1-2" data-name="star1" class="cls-3" d="M41.69,3c1.51,0,3.01.84,3.64,2.53l8.17,22.07c.39,1.06,1.23,1.9,2.29,2.29l22.07,8.17c3.38,1.25,3.38,6.03,0,7.28l-22.07,8.17c-1.06.39-1.9,1.23-2.29,2.29l-8.17,22.07c-.62,1.69-2.13,2.53-3.64,2.53s-3.01-.84-3.64-2.53l-8.17-22.07c-.39-1.06-1.23-1.9-2.29-2.29l-22.07-8.17c-3.38-1.25-3.38-6.03,0-7.28l22.07-8.17c1.06-.39,1.9-1.23,2.29-2.29l8.17-22.07c.62-1.69,2.13-2.53,3.64-2.53M41.69,0c-2.91,0-5.44,1.76-6.45,4.49l-8.17,22.07c-.09.24-.28.43-.52.52l-22.07,8.17c-2.73,1.01-4.49,3.54-4.49,6.45s1.76,5.44,4.49,6.45l22.07,8.17c.24.09.43.28.52.52l8.17,22.07c1.01,2.73,3.54,4.49,6.45,4.49s5.44-1.76,6.45-4.49l8.17-22.07c.09-.24.28-.43.52-.52l22.07-8.17c2.73-1.01,4.49-3.54,4.49-6.45s-1.76-5.44-4.49-6.45l-22.07-8.17c-.24-.09-.43-.28-.52-.52l-8.17-22.07c-1.01-2.73-3.54-4.49-6.45-4.49h0Z"/>
      </g>
      <g>
        <g>
          <path class="cls-4" d="M26.32,90.52c0,.14-.02.26-.14.34-1.49.17-2.5.6-2.64,1.92-.1.98-.12,2.42-.12,3.98,0,1.94.05,4.08.1,5.71.07,2.74,0,3.65,2.06,3.84.1.1.19.29.19.46,0,.14-.07.24-.26.24,0,0-1.78-.14-3.58-.14-.89,0-1.78.05-2.45.14h-.05c-.17,0-.26-.1-.26-.22,0-.14.1-.31.26-.48,1.97-.26,2.26-.48,2.26-2.76v-.72c-.02-1.13-.05-3.14-.05-5.06,0-1.68.02-3.26.07-4.1,0-.1-.02-.14-.07-.14-.12,0-4.01,7.61-6.17,12.38-.31.72-.43.91-.82.91h-.02c-.26,0-.36-.26-.5-.74-.26-.98-1.22-3.02-2.33-5.3-1.15-2.45-2.26-4.54-3.17-6.79-.12-.31-.19-.43-.24-.43-.22,0-.53,7.58-.53,7.99.02,4.54.17,4.51,2.04,4.78.14.14.19.29.19.43s-.1.24-.24.26c-.02,0-1.54-.17-3.12-.17-.79,0-1.58.05-2.23.17h-.05c-.12,0-.19-.1-.19-.24,0-.12.07-.31.22-.46,2.02-.19,2.28-1.03,2.47-4.51.05-1.15.38-6.34.58-8.52,0-.14.02-.26.02-.38,0-1.73-1.1-1.9-2.81-2.06-.12-.12-.19-.26-.19-.41,0-.17.1-.31.36-.31,0,0,1.34.12,2.64.12.5,0,1.01-.02,1.42-.07h.07c.12,0,.14.05.17.26.02.29.48,1.34.65,1.78,1.9,4.85,4.58,9.05,5.45,11.47.02.1.05.17.07.17,0,0,.02-.05.07-.1,4.94-9.62,6.14-12.02,6.36-13.01.07-.26.17-.46.31-.48,0,0,.74.02,1.66.02.82,0,1.78-.02,2.42-.12.05,0,.12.19.12.36Z"/>
          <path class="cls-4" d="M39.62,106.77c-.05.12-.19.22-.58.22,0,0-3.58-.07-6.86-.07-1.82,0-3.58.02-4.54.1h-.02c-.19,0-.29-.12-.29-.26,0-.12.07-.29.24-.41,1.61-.14,1.87-.22,2.06-1.01.14-.55.17-3.72.17-9.86,0-3.98-.05-4.61-2.33-4.61-.14-.1-.22-.26-.22-.38,0-.17.07-.29.22-.29h.05c.62.07,1.78.1,3.1.1,2.98,0,6.84-.12,7.42-.12h.07c.12,0,.43,0,.43.24v.02c0,.1-.02.19-.02.31,0,.7.17,1.66.17,2.45v.14c0,.19-.19.29-.36.29-.1,0-.19-.02-.22-.1-.96-2.4-1.85-2.64-4.39-2.64-.58,0-1.08.02-1.54.12-.67.07-.67.91-.67,3.98,0,.74.02,1.54.02,2.23,0,.36.31.41,1.46.41.36,0,.67-.02,1.01-.07.77-.07,2.14.12,2.52-2.04.02-.14.22-.24.38-.24s.31.07.31.26v.05c-.1.6-.12,1.37-.12,2.11,0,1.49.12,2.9.12,2.9v.02c0,.14-.14.19-.31.19-.19,0-.36-.07-.38-.22-.17-2.23-1.85-2.28-3.6-2.28-1.34,0-1.39,0-1.39.43v1.13c0,5.5,0,5.93,2.45,6.36.24.05.5.07.84.07,2.3,0,3.96-.7,5.66-3.26.05-.07.12-.12.19-.12.19,0,.38.17.38.31v.02c-.29,1.01-1.2,2.81-1.44,3.5Z"/>
          <path class="cls-4" d="M57.57,97.5c0,2.76.1,6.77.31,9.02v.22c0,.58-.24.72-.53.72-.31,0-.53-.19-.86-.74-.79-1.25-2.64-3.65-4.85-6.22-2.28-2.62-4.68-5.42-6.34-7.54t-.05-.02s-.12.05-.12.12c0,.7-.02,1.51-.02,2.38,0,2.59.07,5.59.17,7.13.24,3.34.7,3.43,2.62,3.74.14.12.22.29.22.43s-.07.26-.26.26c0,0-1.7-.17-3.43-.17-.89,0-1.75.05-2.45.17h-.05c-.12,0-.22-.12-.22-.26s.07-.29.22-.43c2.14-.26,2.26-.79,2.26-6.17,0-2.16-.02-5.11-.02-7.58,0-.74-.36-1.42-2.35-1.68-.1-.07-.22-.26-.22-.43,0-.14.1-.26.36-.26,0,0,1.08.1,2.18.1.5,0,1.01-.02,1.44-.07h.02s.1,0,.12.1c.19.72.46.91,1.34,1.99,1.39,1.73,3,3.62,4.73,5.5,1.61,1.78,3.29,3.96,4.7,5.59.05.05.07.07.12.07s.07-.05.07-.19v-.07c-.07-.89-.1-2.26-.1-3.6,0-1.46.02-2.93.02-3.82v-.48c-.02-2.69.24-4.06-2.71-4.42-.14-.12-.22-.26-.22-.41s.1-.29.29-.29c0,0,1.75.12,3.5.12.89,0,1.75-.02,2.4-.12h.05c.14,0,.22.12.22.29,0,.14-.05.29-.19.41-2.09.26-2.38.34-2.38,6.62Z"/>
          <path class="cls-4" d="M76.67,95.01v.5c.02.82.02,1.32.02,1.9s0,1.27-.02,2.47c-.07,5.98-3.1,7.44-6.7,7.44-4.7,0-6.34-3.17-6.34-7.39v-.19c.02-1.22.02-2.42.02-3.12.02-1.54.1-2.64.1-3.46,0-1.75-.34-2.14-2.26-2.26-.12-.1-.19-.24-.19-.38,0-.17.1-.31.26-.31.14,0,1.56.12,3.26.12.98,0,2.09-.05,3.1-.17h.05c.17,0,.24.12.24.26,0,.17-.07.34-.22.43-2.88.36-2.28.29-2.5,5.88,0,.38-.02.84-.02,1.32,0,4.49.07,7.97,4.8,7.97,5.23,0,5.28-4.22,5.28-8.4,0-.79-.02-1.18-.05-1.7-.17-4.54-.14-4.73-2.74-5.02-.12-.07-.17-.22-.17-.38s.07-.31.26-.31c0,0,1.68.1,3.36.1.84,0,1.66-.02,2.28-.1h.05c.12,0,.19.12.19.29,0,.14-.05.31-.19.41-1.39.17-1.9.67-1.9,4.1Z"/>
        </g>
        <g>
          <path class="cls-1" d="M26.32,90.52c0,.14-.02.26-.14.34-1.49.17-2.5.6-2.64,1.92-.1.98-.12,2.42-.12,3.98,0,1.94.05,4.08.1,5.71.07,2.74,0,3.65,2.06,3.84.1.1.19.29.19.46,0,.14-.07.24-.26.24,0,0-1.78-.14-3.58-.14-.89,0-1.78.05-2.45.14h-.05c-.17,0-.26-.1-.26-.22,0-.14.1-.31.26-.48,1.97-.26,2.26-.48,2.26-2.76v-.72c-.02-1.13-.05-3.14-.05-5.06,0-1.68.02-3.26.07-4.1,0-.1-.02-.14-.07-.14-.12,0-4.01,7.61-6.17,12.38-.31.72-.43.91-.82.91h-.02c-.26,0-.36-.26-.5-.74-.26-.98-1.22-3.02-2.33-5.3-1.15-2.45-2.26-4.54-3.17-6.79-.12-.31-.19-.43-.24-.43-.22,0-.53,7.58-.53,7.99.02,4.54.17,4.51,2.04,4.78.14.14.19.29.19.43s-.1.24-.24.26c-.02,0-1.54-.17-3.12-.17-.79,0-1.58.05-2.23.17h-.05c-.12,0-.19-.1-.19-.24,0-.12.07-.31.22-.46,2.02-.19,2.28-1.03,2.47-4.51.05-1.15.38-6.34.58-8.52,0-.14.02-.26.02-.38,0-1.73-1.1-1.9-2.81-2.06-.12-.12-.19-.26-.19-.41,0-.17.1-.31.36-.31,0,0,1.34.12,2.64.12.5,0,1.01-.02,1.42-.07h.07c.12,0,.14.05.17.26.02.29.48,1.34.65,1.78,1.9,4.85,4.58,9.05,5.45,11.47.02.1.05.17.07.17,0,0,.02-.05.07-.1,4.94-9.62,6.14-12.02,6.36-13.01.07-.26.17-.46.31-.48,0,0,.74.02,1.66.02.82,0,1.78-.02,2.42-.12.05,0,.12.19.12.36Z"/>
          <path class="cls-1" d="M39.62,106.77c-.05.12-.19.22-.58.22,0,0-3.58-.07-6.86-.07-1.82,0-3.58.02-4.54.1h-.02c-.19,0-.29-.12-.29-.26,0-.12.07-.29.24-.41,1.61-.14,1.87-.22,2.06-1.01.14-.55.17-3.72.17-9.86,0-3.98-.05-4.61-2.33-4.61-.14-.1-.22-.26-.22-.38,0-.17.07-.29.22-.29h.05c.62.07,1.78.1,3.1.1,2.98,0,6.84-.12,7.42-.12h.07c.12,0,.43,0,.43.24v.02c0,.1-.02.19-.02.31,0,.7.17,1.66.17,2.45v.14c0,.19-.19.29-.36.29-.1,0-.19-.02-.22-.1-.96-2.4-1.85-2.64-4.39-2.64-.58,0-1.08.02-1.54.12-.67.07-.67.91-.67,3.98,0,.74.02,1.54.02,2.23,0,.36.31.41,1.46.41.36,0,.67-.02,1.01-.07.77-.07,2.14.12,2.52-2.04.02-.14.22-.24.38-.24s.31.07.31.26v.05c-.1.6-.12,1.37-.12,2.11,0,1.49.12,2.9.12,2.9v.02c0,.14-.14.19-.31.19-.19,0-.36-.07-.38-.22-.17-2.23-1.85-2.28-3.6-2.28-1.34,0-1.39,0-1.39.43v1.13c0,5.5,0,5.93,2.45,6.36.24.05.5.07.84.07,2.3,0,3.96-.7,5.66-3.26.05-.07.12-.12.19-.12.19,0,.38.17.38.31v.02c-.29,1.01-1.2,2.81-1.44,3.5Z"/>
          <path class="cls-1" d="M57.57,97.5c0,2.76.1,6.77.31,9.02v.22c0,.58-.24.72-.53.72-.31,0-.53-.19-.86-.74-.79-1.25-2.64-3.65-4.85-6.22-2.28-2.62-4.68-5.42-6.34-7.54t-.05-.02s-.12.05-.12.12c0,.7-.02,1.51-.02,2.38,0,2.59.07,5.59.17,7.13.24,3.34.7,3.43,2.62,3.74.14.12.22.29.22.43s-.07.26-.26.26c0,0-1.7-.17-3.43-.17-.89,0-1.75.05-2.45.17h-.05c-.12,0-.22-.12-.22-.26s.07-.29.22-.43c2.14-.26,2.26-.79,2.26-6.17,0-2.16-.02-5.11-.02-7.58,0-.74-.36-1.42-2.35-1.68-.1-.07-.22-.26-.22-.43,0-.14.1-.26.36-.26,0,0,1.08.1,2.18.1.5,0,1.01-.02,1.44-.07h.02s.1,0,.12.1c.19.72.46.91,1.34,1.99,1.39,1.73,3,3.62,4.73,5.5,1.61,1.78,3.29,3.96,4.7,5.59.05.05.07.07.12.07s.07-.05.07-.19v-.07c-.07-.89-.1-2.26-.1-3.6,0-1.46.02-2.93.02-3.82v-.48c-.02-2.69.24-4.06-2.71-4.42-.14-.12-.22-.26-.22-.41s.1-.29.29-.29c0,0,1.75.12,3.5.12.89,0,1.75-.02,2.4-.12h.05c.14,0,.22.12.22.29,0,.14-.05.29-.19.41-2.09.26-2.38.34-2.38,6.62Z"/>
          <path class="cls-1" d="M76.67,95.01v.5c.02.82.02,1.32.02,1.9s0,1.27-.02,2.47c-.07,5.98-3.1,7.44-6.7,7.44-4.7,0-6.34-3.17-6.34-7.39v-.19c.02-1.22.02-2.42.02-3.12.02-1.54.1-2.64.1-3.46,0-1.75-.34-2.14-2.26-2.26-.12-.1-.19-.24-.19-.38,0-.17.1-.31.26-.31.14,0,1.56.12,3.26.12.98,0,2.09-.05,3.1-.17h.05c.17,0,.24.12.24.26,0,.17-.07.34-.22.43-2.88.36-2.28.29-2.5,5.88,0,.38-.02.84-.02,1.32,0,4.49.07,7.97,4.8,7.97,5.23,0,5.28-4.22,5.28-8.4,0-.79-.02-1.18-.05-1.7-.17-4.54-.14-4.73-2.74-5.02-.12-.07-.17-.22-.17-.38s.07-.31.26-.31c0,0,1.68.1,3.36.1.84,0,1.66-.02,2.28-.1h.05c.12,0,.19.12.19.29,0,.14-.05.31-.19.41-1.39.17-1.9.67-1.9,4.1Z"/>
        </g>
        <g>
          <path class="cls-4" d="M26.32,90.52c0,.14-.02.26-.14.34-1.49.17-2.5.6-2.64,1.92-.1.98-.12,2.42-.12,3.98,0,1.94.05,4.08.1,5.71.07,2.74,0,3.65,2.06,3.84.1.1.19.29.19.46,0,.14-.07.24-.26.24,0,0-1.78-.14-3.58-.14-.89,0-1.78.05-2.45.14h-.05c-.17,0-.26-.1-.26-.22,0-.14.1-.31.26-.48,1.97-.26,2.26-.48,2.26-2.76v-.72c-.02-1.13-.05-3.14-.05-5.06,0-1.68.02-3.26.07-4.1,0-.1-.02-.14-.07-.14-.12,0-4.01,7.61-6.17,12.38-.31.72-.43.91-.82.91h-.02c-.26,0-.36-.26-.5-.74-.26-.98-1.22-3.02-2.33-5.3-1.15-2.45-2.26-4.54-3.17-6.79-.12-.31-.19-.43-.24-.43-.22,0-.53,7.58-.53,7.99.02,4.54.17,4.51,2.04,4.78.14.14.19.29.19.43s-.1.24-.24.26c-.02,0-1.54-.17-3.12-.17-.79,0-1.58.05-2.23.17h-.05c-.12,0-.19-.1-.19-.24,0-.12.07-.31.22-.46,2.02-.19,2.28-1.03,2.47-4.51.05-1.15.38-6.34.58-8.52,0-.14.02-.26.02-.38,0-1.73-1.1-1.9-2.81-2.06-.12-.12-.19-.26-.19-.41,0-.17.1-.31.36-.31,0,0,1.34.12,2.64.12.5,0,1.01-.02,1.42-.07h.07c.12,0,.14.05.17.26.02.29.48,1.34.65,1.78,1.9,4.85,4.58,9.05,5.45,11.47.02.1.05.17.07.17,0,0,.02-.05.07-.1,4.94-9.62,6.14-12.02,6.36-13.01.07-.26.17-.46.31-.48,0,0,.74.02,1.66.02.82,0,1.78-.02,2.42-.12.05,0,.12.19.12.36Z"/>
          <path class="cls-4" d="M39.62,106.77c-.05.12-.19.22-.58.22,0,0-3.58-.07-6.86-.07-1.82,0-3.58.02-4.54.1h-.02c-.19,0-.29-.12-.29-.26,0-.12.07-.29.24-.41,1.61-.14,1.87-.22,2.06-1.01.14-.55.17-3.72.17-9.86,0-3.98-.05-4.61-2.33-4.61-.14-.1-.22-.26-.22-.38,0-.17.07-.29.22-.29h.05c.62.07,1.78.1,3.1.1,2.98,0,6.84-.12,7.42-.12h.07c.12,0,.43,0,.43.24v.02c0,.1-.02.19-.02.31,0,.7.17,1.66.17,2.45v.14c0,.19-.19.29-.36.29-.1,0-.19-.02-.22-.1-.96-2.4-1.85-2.64-4.39-2.64-.58,0-1.08.02-1.54.12-.67.07-.67.91-.67,3.98,0,.74.02,1.54.02,2.23,0,.36.31.41,1.46.41.36,0,.67-.02,1.01-.07.77-.07,2.14.12,2.52-2.04.02-.14.22-.24.38-.24s.31.07.31.26v.05c-.1.6-.12,1.37-.12,2.11,0,1.49.12,2.9.12,2.9v.02c0,.14-.14.19-.31.19-.19,0-.36-.07-.38-.22-.17-2.23-1.85-2.28-3.6-2.28-1.34,0-1.39,0-1.39.43v1.13c0,5.5,0,5.93,2.45,6.36.24.05.5.07.84.07,2.3,0,3.96-.7,5.66-3.26.05-.07.12-.12.19-.12.19,0,.38.17.38.31v.02c-.29,1.01-1.2,2.81-1.44,3.5Z"/>
          <path class="cls-4" d="M57.57,97.5c0,2.76.1,6.77.31,9.02v.22c0,.58-.24.72-.53.72-.31,0-.53-.19-.86-.74-.79-1.25-2.64-3.65-4.85-6.22-2.28-2.62-4.68-5.42-6.34-7.54t-.05-.02s-.12.05-.12.12c0,.7-.02,1.51-.02,2.38,0,2.59.07,5.59.17,7.13.24,3.34.7,3.43,2.62,3.74.14.12.22.29.22.43s-.07.26-.26.26c0,0-1.7-.17-3.43-.17-.89,0-1.75.05-2.45.17h-.05c-.12,0-.22-.12-.22-.26s.07-.29.22-.43c2.14-.26,2.26-.79,2.26-6.17,0-2.16-.02-5.11-.02-7.58,0-.74-.36-1.42-2.35-1.68-.1-.07-.22-.26-.22-.43,0-.14.1-.26.36-.26,0,0,1.08.1,2.18.1.5,0,1.01-.02,1.44-.07h.02s.1,0,.12.1c.19.72.46.91,1.34,1.99,1.39,1.73,3,3.62,4.73,5.5,1.61,1.78,3.29,3.96,4.7,5.59.05.05.07.07.12.07s.07-.05.07-.19v-.07c-.07-.89-.1-2.26-.1-3.6,0-1.46.02-2.93.02-3.82v-.48c-.02-2.69.24-4.06-2.71-4.42-.14-.12-.22-.26-.22-.41s.1-.29.29-.29c0,0,1.75.12,3.5.12.89,0,1.75-.02,2.4-.12h.05c.14,0,.22.12.22.29,0,.14-.05.29-.19.41-2.09.26-2.38.34-2.38,6.62Z"/>
          <path class="cls-4" d="M76.67,95.01v.5c.02.82.02,1.32.02,1.9s0,1.27-.02,2.47c-.07,5.98-3.1,7.44-6.7,7.44-4.7,0-6.34-3.17-6.34-7.39v-.19c.02-1.22.02-2.42.02-3.12.02-1.54.1-2.64.1-3.46,0-1.75-.34-2.14-2.26-2.26-.12-.1-.19-.24-.19-.38,0-.17.1-.31.26-.31.14,0,1.56.12,3.26.12.98,0,2.09-.05,3.1-.17h.05c.17,0,.24.12.24.26,0,.17-.07.34-.22.43-2.88.36-2.28.29-2.5,5.88,0,.38-.02.84-.02,1.32,0,4.49.07,7.97,4.8,7.97,5.23,0,5.28-4.22,5.28-8.4,0-.79-.02-1.18-.05-1.7-.17-4.54-.14-4.73-2.74-5.02-.12-.07-.17-.22-.17-.38s.07-.31.26-.31c0,0,1.68.1,3.36.1.84,0,1.66-.02,2.28-.1h.05c.12,0,.19.12.19.29,0,.14-.05.31-.19.41-1.39.17-1.9.67-1.9,4.1Z"/>
        </g>
      </g>
    </g>
  </g>
</svg>