<?xml version="1.0" encoding="UTF-8"?>
<svg id="_レイヤー_2" data-name="レイヤー_2" xmlns="http://www.w3.org/2000/svg" xmlns:xlink="http://www.w3.org/1999/xlink" viewBox="0 0 94.5 93.99">
  <defs>
    <style>
      .cls-1 {
        fill: url(#_名称未設定グラデーション_7);
      }

      .cls-2 {
        fill: none;
        stroke: #fff;
        stroke-linecap: round;
        stroke-linejoin: round;
        stroke-width: 3px;
      }

      .cls-3 {
        fill: #423f48;
      }
    </style>
    <linearGradient id="_名称未設定グラデーション_7" data-name="名称未設定グラデーション 7" x1="15.03" y1="19.19" x2="49.8" y2="19.19" gradientUnits="userSpaceOnUse">
      <stop offset="0" stop-color="#ffb6ce"/>
      <stop offset=".5" stop-color="#e5bdff"/>
      <stop offset="1" stop-color="#c0ceff"/>
    </linearGradient>
  </defs>
  <g id="_レイヤー_4" data-name="レイヤー_4">
    <g>
      <path class="cls-3" d="M84.26,10.25h0c-13.66-13.66-35.81-13.66-49.47,0h0c-12.16,12.16-13.47,31.03-3.98,44.67L1.71,84.01c-2.28,2.28-2.28,5.99,0,8.27,2.28,2.28,5.99,2.28,8.27,0l29.02-29.02c13.68,9.95,32.92,8.79,45.25-3.55h0c13.66-13.66,13.66-35.81,0-49.47ZM77.2,52.66c-9.76,9.76-25.59,9.76-35.36,0-9.76-9.76-9.76-25.59,0-35.36h0c9.76-9.76,25.59-9.76,35.36,0h0c9.76,9.76,9.76,25.59,0,35.36Z"/>
      <g>
        <path class="cls-2" d="M16.76,16.69l9.6-3.55,3.55-9.6c.86-2.31,4.13-2.31,4.99,0l3.55,9.6,9.6,3.55c2.31.86,2.31,4.13,0,4.99l-9.6,3.55-3.55,9.6c-.86,2.31-4.13,2.31-4.99,0l-3.55-9.6-9.6-3.55c-2.31-.86-2.31-4.13,0-4.99Z"/>
        <path class="cls-1" d="M16.76,16.69l9.6-3.55,3.55-9.6c.86-2.31,4.13-2.31,4.99,0l3.55,9.6,9.6,3.55c2.31.86,2.31,4.13,0,4.99l-9.6,3.55-3.55,9.6c-.86,2.31-4.13,2.31-4.99,0l-3.55-9.6-9.6-3.55c-2.31-.86-2.31-4.13,0-4.99Z"/>
      </g>
    </g>
  </g>
</svg>