<?xml version="1.0" encoding="UTF-8"?>
<svg id="_レイヤー_2" data-name="レイヤー_2" xmlns="http://www.w3.org/2000/svg" xmlns:xlink="http://www.w3.org/1999/xlink" viewBox="0 0 352 352">
  <defs>
    <style>
      .cls-1 {
        fill: url(#_名称未設定グラデーション_7);
      }

      .cls-2 {
        fill: #fff;
      }

      .cls-3 {
        fill: url(#_名称未設定グラデーション_7-3);
      }

      .cls-4 {
        fill: url(#_名称未設定グラデーション_7-4);
      }

      .cls-5 {
        fill: url(#_名称未設定グラデーション_7-2);
      }

      .cls-6 {
        fill: #423f48;
      }
    </style>
    <linearGradient id="_名称未設定グラデーション_7" data-name="名称未設定グラデーション 7" x1="112.42" y1="147.29" x2="222.35" y2="147.29" gradientTransform="translate(-25.36 31.28) rotate(-8.47)" gradientUnits="userSpaceOnUse">
      <stop offset="0" stop-color="#ffb6ce"/>
      <stop offset=".5" stop-color="#e5bdff"/>
      <stop offset="1" stop-color="#c0ceff"/>
    </linearGradient>
    <linearGradient id="_名称未設定グラデーション_7-2" data-name="名称未設定グラデーション 7" x1="287.73" y1="12.13" x2="326.63" y2="12.13" gradientTransform="translate(68.79 267) rotate(-45)" xlink:href="#_名称未設定グラデーション_7"/>
    <linearGradient id="_名称未設定グラデーション_7-3" data-name="名称未設定グラデーション 7" x1="8.37" y1="50.24" x2="33.11" y2="50.24" gradientTransform="translate(68.79 267) rotate(-45)" xlink:href="#_名称未設定グラデーション_7"/>
    <linearGradient id="_名称未設定グラデーション_7-4" data-name="名称未設定グラデーション 7" x1="-52.22" y1="-38.23" x2="7.8" y2="-38.23" gradientTransform="translate(93.01 275.46)" xlink:href="#_名称未設定グラデーション_7"/>
  </defs>
  <g id="_レイヤー_1-2" data-name="レイヤー_1">
    <g>
      <g id="_背景" data-name="背景">
        <rect class="cls-6" x="0" width="352" height="352" rx="59.43" ry="59.43"/>
      </g>
      <path id="_手鏡" data-name="手鏡" class="cls-2" d="M256.45,112.87v-27.55c0-14.62-12.68-26.47-28.33-26.47h-8.66c-1.19-6.08-6.87-10.69-13.71-10.69h-2.38v-.36c0-6.67-4.91-12.61-11.92-13.89-2.74-.5-5.34-.23-7.68.54v-.49c0-5.04-4.22-9.37-9.62-9.46s-9.98,4.04-9.98,9.16v.8c-2.34-.78-4.95-1.04-7.68-.54-7,1.28-11.92,7.22-11.92,13.89v.36s-2.38,0-2.38,0c-6.84,0-12.53,4.61-13.71,10.69h-6.21c-15.65,0-28.33,11.85-28.33,26.47v25.92c-3.69,8.97-5.72,18.7-5.72,28.89v2.29c0,.06,0,.13,0,.19-8.82,14.68-6.56,33.61,6.81,46.11h0c5.04,4.71,11.07,7.95,17.46,9.71,1.6,1.54,3.26,3.02,4.99,4.44-.43,1.79-.67,3.66-.67,5.57h0c0,13.91,12.07,25.19,26.95,25.19h0c6.23,0,11.97-1.98,16.53-5.3,1.99-1.45,4.87.04,4.7,2.39l-6.65,87.57c-.38,4.98,3.84,9.21,9.18,9.21h13.72c5.34,0,9.56-4.23,9.18-9.21l-6.65-87.57c-.18-2.35,2.71-3.84,4.7-2.39,4.56,3.32,10.3,5.3,16.53,5.3h0c14.88,0,26.95-11.28,26.95-25.19h0c0-1.92-.24-3.78-.67-5.57,1.78-1.46,3.49-2.99,5.14-4.58,6.21-1.79,12.06-4.97,16.97-9.57h0c11.67-10.91,14.87-26.72,9.63-40.33-.38-.98-1.37-1.64-2.49-1.64h-11.98c-9.17,0-16.6,6.95-16.6,15.51h0c0,29.72-25.78,53.81-57.58,53.81h0c-31.8,0-57.58-24.09-57.58-53.81v-41.98c0-29.72,25.78-53.81,57.58-53.81h0c25.86,0,47.72,15.93,54.99,37.86,2.16,6.52,8.57,10.99,15.87,10.99h8.58c1.45,0,2.63-1.1,2.63-2.46Z"/>
      <g id="_メイク" data-name="メイク">
        <path class="cls-1" d="M126.27,187.28c-5.67,0-10.8-3.57-12.77-8.89l-5.04-13.61c-2.6-7.04,1-14.88,8.04-17.49l80.22-29.68c1.52-.56,3.1-.85,4.71-.85,1.04,0,2.08.12,3.09.36,1.01.24,1.81.96,2.14,1.95.33.99.13,2.05-.53,2.85l-2.9,3.49c-.11.14-.1.27-.06.37.03.09.11.21.29.24l5.75.98c1.06.18,1.91.89,2.29,1.9s.19,2.1-.5,2.93l-3.73,4.49c-.11.14-.1.27-.06.37.03.09.11.21.29.24l5.75.98c1.06.18,1.91.89,2.29,1.9s.19,2.1-.5,2.93l-3.73,4.49c-.11.14-.1.27-.06.37.03.09.11.21.29.24l3.2.55c1.08.18,1.97.95,2.33,1.99.35,1.02.11,2.15-.62,2.93-1.45,1.56-3.21,2.73-5.22,3.47l-80.22,29.68c-1.52.56-3.11.85-4.72.85h0Z"/>
        <path class="cls-6" d="M201.44,118.25c.93,0,1.86.11,2.75.32,1.06.25,1.49,1.54.79,2.38l-2.9,3.49c-.92,1.11-.3,2.8,1.12,3.04l5.75.98c1.12.19,1.61,1.52.88,2.39l-3.73,4.49c-.92,1.11-.3,2.8,1.12,3.04l5.75.98c1.12.19,1.61,1.52.88,2.39l-3.73,4.49c-.92,1.11-.3,2.8,1.12,3.04l3.2.55c1.14.19,1.64,1.58.86,2.42-1.24,1.34-2.81,2.41-4.64,3.09l-80.22,29.68c-1.39.51-2.81.76-4.2.76-4.92,0-9.55-3.02-11.36-7.91l-5.04-13.61c-2.32-6.27.88-13.24,7.15-15.56l80.22-29.68c1.38-.51,2.8-.75,4.19-.75M201.44,115.25c-1.78,0-3.54.32-5.23.94l-80.22,29.68c-3.79,1.4-6.8,4.19-8.48,7.86-1.69,3.67-1.84,7.77-.44,11.56l5.04,13.61c2.18,5.9,7.88,9.87,14.17,9.87,1.79,0,3.55-.32,5.24-.94l80.22-29.68c2.23-.83,4.18-2.12,5.8-3.86,1.11-1.19,1.47-2.89.95-4.44-.53-1.57-1.87-2.71-3.49-2.99l-1.27-.22,2.48-2.99c1.02-1.22,1.31-2.91.75-4.41-.55-1.49-1.87-2.59-3.44-2.85l-3.82-.65,2.48-2.99c1.02-1.22,1.31-2.91.75-4.41-.55-1.49-1.87-2.59-3.44-2.85l-3.82-.65,1.65-1.98c1-1.2,1.3-2.8.8-4.29-.5-1.48-1.7-2.57-3.22-2.93-1.13-.26-2.28-.4-3.43-.4h0Z"/>
      </g>
      <g>
        <path class="cls-5" d="M294.58,84.23c-1.67,0-3.12-1.01-3.7-2.57l-5.14-13.9c-.1-.26-.3-.46-.56-.56l-13.9-5.14c-1.56-.58-2.57-2.03-2.57-3.7,0-1.67,1.01-3.12,2.57-3.7l13.9-5.14c.26-.1.46-.3.56-.56l5.14-13.89c.58-1.56,2.03-2.57,3.7-2.57s3.12,1.01,3.7,2.57l5.14,13.9c.1.26.3.46.56.56l13.9,5.14c1.56.58,2.57,2.03,2.57,3.7,0,1.67-1.01,3.12-2.57,3.7l-13.9,5.14c-.26.1-.46.3-.56.56l-5.14,13.9c-.58,1.56-2.03,2.57-3.7,2.57Z"/>
        <path class="cls-6" d="M294.58,34c.95,0,1.9.53,2.29,1.59l5.14,13.9c.25.67.77,1.2,1.44,1.44l13.9,5.14c2.13.79,2.13,3.79,0,4.58l-13.9,5.14c-.67.25-1.2.77-1.44,1.44l-5.14,13.9c-.39,1.06-1.34,1.59-2.29,1.59s-1.9-.53-2.29-1.59l-5.14-13.9c-.25-.67-.77-1.2-1.44-1.44l-13.9-5.14c-2.13-.79-2.13-3.79,0-4.58l13.9-5.14c.67-.25,1.2-.77,1.44-1.44l5.14-13.9c.39-1.06,1.34-1.59,2.29-1.59M294.58,31c-2.3,0-4.31,1.39-5.1,3.55l-5.05,13.65-13.65,5.05c-2.16.8-3.55,2.8-3.55,5.1,0,2.3,1.39,4.31,3.55,5.1l13.65,5.05,5.05,13.65c.8,2.16,2.8,3.55,5.1,3.55s4.31-1.39,5.1-3.55l5.05-13.65,13.65-5.05c2.16-.8,3.55-2.8,3.55-5.1,0-2.3-1.39-4.31-3.55-5.1l-13.65-5.05-5.05-13.65c-.8-2.16-2.8-3.55-5.1-3.55h0Z"/>
      </g>
      <g>
        <path class="cls-3" d="M118.98,304.11c-1.26,0-2.36-.76-2.79-1.95l-3.11-8.42-8.4-3.1c-1.18-.44-1.95-1.53-1.95-2.79s.76-2.36,1.95-2.79l8.42-3.11,3.1-8.4c.44-1.18,1.53-1.95,2.79-1.95s2.36.76,2.79,1.95l3.11,8.42,8.4,3.1c1.18.44,1.95,1.53,1.95,2.79s-.76,2.36-1.95,2.79l-8.41,3.11-3.1,8.4c-.44,1.18-1.53,1.95-2.79,1.95Z"/>
        <path class="cls-6" d="M118.98,273.1c.57,0,1.15.32,1.39.97l3.11,8.41c.15.4.47.72.87.87l8.41,3.11c1.29.48,1.29,2.3,0,2.77l-8.41,3.11c-.4.15-.72.47-.87.87l-3.11,8.41c-.24.64-.81.97-1.39.97s-1.15-.32-1.39-.97l-3.11-8.41c-.15-.4-.47-.72-.87-.87l-8.41-3.11c-1.29-.48-1.29-2.3,0-2.77l8.41-3.11c.4-.15.72-.47.87-.87l3.11-8.41c.24-.64.81-.97,1.39-.97M118.98,270.1c-1.89,0-3.54,1.15-4.2,2.92l-2.87,7.76-7.76,2.87c-1.78.66-2.92,2.31-2.92,4.2,0,1.89,1.15,3.54,2.92,4.2l7.76,2.87,2.87,7.76c.66,1.78,2.31,2.92,4.2,2.92s3.54-1.15,4.2-2.92l2.87-7.76,7.76-2.87c1.78-.66,2.92-2.31,2.92-4.2,0-1.89-1.15-3.54-2.92-4.2l-7.76-2.87-2.87-7.76c-.66-1.78-2.31-2.92-4.2-2.92h0Z"/>
      </g>
      <g>
        <path class="cls-4" d="M46.16,267.23c-1.8,0-3.53-.96-4.53-2.51-1-1.56-1.12-3.43-.34-5.13l9.83-21.38c.29-.63.29-1.36,0-1.99l-9.83-21.38c-.78-1.7-.66-3.57.34-5.13.99-1.55,2.73-2.51,4.53-2.51.77,0,1.54.17,2.27.51l21.38,9.83c.31.14.65.22.99.22s.68-.07.99-.22l21.38-9.83c.73-.34,1.49-.51,2.27-.51,1.8,0,3.53.96,4.53,2.51,1,1.56,1.12,3.43.34,5.13l-9.83,21.38c-.29.63-.29,1.36,0,1.99l9.83,21.38c.78,1.7.66,3.57-.34,5.13-.99,1.55-2.73,2.51-4.53,2.51-.77,0-1.54-.17-2.27-.51l-21.38-9.83c-.31-.14-.65-.22-.99-.22s-.68.07-.99.22l-21.38,9.83c-.73.34-1.49.51-2.27.51h0Z"/>
        <path class="cls-6" d="M95.43,208.71c2.63,0,4.76,2.79,3.5,5.51l-9.83,21.38c-.47,1.03-.47,2.21,0,3.24l9.83,21.38c1.25,2.72-.87,5.51-3.5,5.51-.53,0-1.09-.11-1.64-.37l-21.38-9.83c-.51-.24-1.07-.35-1.62-.35s-1.11.12-1.62.35l-21.38,9.83c-.55.25-1.11.37-1.64.37-2.63,0-4.76-2.79-3.5-5.51l9.83-21.38c.47-1.03.47-2.21,0-3.24l-9.83-21.38c-1.25-2.72.87-5.51,3.5-5.51.53,0,1.09.11,1.64.37l21.38,9.83c.51.24,1.07.35,1.62.35s1.11-.12,1.62-.35l21.38-9.83c.55-.25,1.11-.37,1.64-.37M95.43,205.71h0c-.99,0-1.97.22-2.89.64l-21.38,9.83c-.12.05-.24.08-.37.08s-.25-.03-.37-.08l-21.38-9.83c-.93-.43-1.9-.64-2.89-.64-2.34,0-4.5,1.2-5.79,3.2-1.26,1.97-1.43,4.42-.44,6.56l9.83,21.38c.11.23.11.5,0,.73l-9.83,21.38c-.99,2.14-.82,4.6.44,6.56,1.29,2.01,3.45,3.2,5.79,3.2.99,0,1.97-.22,2.89-.64l21.38-9.83c.12-.05.24-.08.37-.08s.25.03.37.08l21.38,9.83c.93.43,1.9.64,2.89.64,2.34,0,4.5-1.2,5.79-3.2,1.26-1.97,1.43-4.42.44-6.56l-9.83-21.38c-.11-.23-.11-.5,0-.73l9.83-21.38c.99-2.14.82-4.6-.44-6.56-1.29-2.01-3.45-3.2-5.79-3.2h0Z"/>
      </g>
    </g>
  </g>
</svg>