<?xml version="1.0" encoding="UTF-8"?>
<svg id="_レイヤー_2" data-name="レイヤー_2" xmlns="http://www.w3.org/2000/svg" xmlns:xlink="http://www.w3.org/1999/xlink" viewBox="0 0 385.15 296.55">
  <defs>
    <style>
      .cls-1 {
        fill: #c0ceff;
      }

      .cls-2 {
        fill: #fff;
      }

      .cls-3 {
        fill: url(#_名称未設定グラデーション_277);
      }

      .cls-4 {
        fill: #423f48;
      }
    </style>
    <linearGradient id="_名称未設定グラデーション_277" data-name="名称未設定グラデーション 277" x1="160.58" y1="165.56" x2="160.58" y2="26.9" gradientTransform="translate(13.7 79.33) rotate(-5.41) scale(1.02 1.09)" gradientUnits="userSpaceOnUse">
      <stop offset="0" stop-color="#ffb6ce"/>
      <stop offset=".15" stop-color="#f1b9e8"/>
      <stop offset=".3" stop-color="#e5bdff"/>
      <stop offset=".41" stop-color="#ccc8ff"/>
      <stop offset=".49" stop-color="#c0ceff"/>
      <stop offset=".6" stop-color="#d9e1ff"/>
      <stop offset=".73" stop-color="#eef1ff"/>
      <stop offset=".86" stop-color="#fafbff"/>
      <stop offset=".97" stop-color="#fff"/>
    </linearGradient>
  </defs>
  <g id="_レイヤー_1-2" data-name="レイヤー_1">
    <g>
      <path class="cls-3" d="M324.39,169.01s-43.48,69.14-140.58,75.12c-97.1,5.98-133.29-49.19-133.29-49.19,0,0,105.75-207.44,273.26-32.31"/>
      <path class="cls-4" d="M172.51,256.16c-2.07,0-4.16-.03-6.28-.1-89.14-2.85-118.29-54.52-119.49-56.72-2.11-3.88-.68-8.74,3.2-10.85,3.87-2.11,8.71-.69,10.83,3.17.16.28,6.71,11.68,22.76,23.22,14.98,10.76,41.57,23.87,83.21,25.2,80.63,2.58,122.48-49.01,122.89-49.53,2.74-3.46,7.78-4.04,11.24-1.3,3.46,2.75,4.04,7.78,1.3,11.24-.48.61-12.08,15.07-34.66,29.12-19.75,12.29-51.95,26.56-95,26.56Z"/>
      <g>
        <line class="cls-2" x1="75.54" y1="218.88" x2="53.77" y2="241.59"/>
        <path class="cls-4" d="M53.77,246.59c-1.24,0-2.49-.46-3.46-1.39-1.99-1.91-2.06-5.08-.15-7.07l21.77-22.71c1.91-1.99,5.08-2.06,7.07-.15,1.99,1.91,2.06,5.08.15,7.07l-21.77,22.71c-.98,1.02-2.29,1.54-3.61,1.54Z"/>
      </g>
      <g>
        <line class="cls-2" x1="118.79" y1="241.59" x2="101.98" y2="273.78"/>
        <path class="cls-4" d="M101.97,278.78c-.78,0-1.57-.18-2.31-.57-2.45-1.28-3.4-4.3-2.12-6.75l16.82-32.19c1.28-2.45,4.3-3.4,6.75-2.12,2.45,1.28,3.4,4.3,2.12,6.75l-16.82,32.19c-.89,1.71-2.63,2.69-4.44,2.69Z"/>
      </g>
      <path class="cls-4" d="M169.8,296.55c-2.76,0-5-2.24-5-5v-43.49c0-2.76,2.24-5,5-5s5,2.24,5,5v43.49c0,2.76-2.24,5-5,5Z"/>
      <g>
        <line class="cls-2" x1="220.8" y1="241.59" x2="237.46" y2="273.78"/>
        <path class="cls-4" d="M237.46,278.78c-1.81,0-3.56-.99-4.44-2.7l-16.66-32.19c-1.27-2.45-.31-5.47,2.14-6.74,2.45-1.27,5.47-.31,6.74,2.14l16.66,32.19c1.27,2.45.31,5.47-2.14,6.74-.73.38-1.52.56-2.29.56Z"/>
      </g>
      <g>
        <line class="cls-2" x1="273.01" y1="218.88" x2="290.31" y2="241.59"/>
        <path class="cls-4" d="M290.31,246.59c-1.51,0-3-.68-3.98-1.97l-17.3-22.71c-1.67-2.2-1.25-5.33.95-7.01,2.2-1.67,5.33-1.25,7.01.95l17.3,22.71c1.67,2.2,1.25,5.33-.95,7.01-.91.69-1.97,1.02-3.03,1.02Z"/>
      </g>
      <g>
        <path class="cls-1" d="M344.17,25.82C193.66-20.02,13.73,25.82,13.73,25.82c0,0-18.51,12.31,0,14.78s119.92-10.49,161.11-12.83c80.96-4.62,169.34-1.94,169.34-1.94Z"/>
        <path class="cls-4" d="M20.3,46.39c-3.03,0-5.5-.11-7.31-.35-7.42-.99-11.71-3.82-12.77-8.41-1.71-7.38,6.75-13.92,10.46-16.39l.78-.52.91-.23c.45-.12,46.14-11.64,109.64-17.34,58.69-5.27,145.16-6.53,223.76,17.41l39.37,11.99-41.14-1.24c-.88-.03-89.08-2.61-168.86,1.94-15.99.91-40.84,3.41-67.16,6.05-36.23,3.64-70.77,7.1-87.69,7.1ZM11.86,34.65c.62.17,1.46.35,2.59.5,10.64,1.42,54.1-2.94,92.44-6.79,26.43-2.65,51.4-5.16,67.63-6.08,42.37-2.42,87.09-2.84,119.99-2.68-62.5-11.25-125.48-9.62-171.31-5.51-57.66,5.17-100.36,15.17-107.17,16.83-1.6,1.17-3.19,2.61-4.17,3.74Z"/>
      </g>
      <g>
        <path class="cls-2" d="M317.83,181.33c-5.12,8.61-21.26,21.91-30.92,27.08-8.13,4.36-7.36,1.02-14.8,6.48,20.35-20.12,40.7-40.23,61.06-60.35l-15.34,26.79Z"/>
        <path class="cls-4" d="M275.07,218.92l-6.47-7.59,87.13-86.12-33.6,58.67c-5.57,9.37-22.24,23.24-32.85,28.93-4.29,2.3-6.69,2.82-8.45,3.19-1.58.34-2.53.54-5.75,2.91ZM317.83,181.33h0,0Z"/>
      </g>
    </g>
  </g>
</svg>