<?xml version="1.0" encoding="UTF-8"?>
<svg id="_レイヤー_2" data-name="レイヤー_2" xmlns="http://www.w3.org/2000/svg" xmlns:xlink="http://www.w3.org/1999/xlink" viewBox="0 0 569.73 303">
  <defs>
    <style>
      .cls-1 {
        fill: url(#_名称未設定グラデーション_7);
      }

      .cls-2 {
        fill: #fff;
      }

      .cls-3 {
        fill: url(#_名称未設定グラデーション_7-3);
      }

      .cls-4 {
        fill: url(#_名称未設定グラデーション_7-4);
      }

      .cls-5 {
        fill: url(#_名称未設定グラデーション_7-2);
      }

      .cls-6 {
        fill: #423f48;
      }
    </style>
    <linearGradient id="_名称未設定グラデーション_7" data-name="名称未設定グラデーション 7" x1="66.66" y1="216.64" x2="176.59" y2="216.64" gradientTransform="translate(-29.61 -68.56) rotate(-8.47)" gradientUnits="userSpaceOnUse">
      <stop offset="0" stop-color="#ffb6ce"/>
      <stop offset=".5" stop-color="#e5bdff"/>
      <stop offset="1" stop-color="#c0ceff"/>
    </linearGradient>
    <linearGradient id="_名称未設定グラデーション_7-2" data-name="名称未設定グラデーション 7" x1="-215.2" y1="477.15" x2="-190.45" y2="477.15" gradientTransform="translate(-114.29 -217.46) rotate(-45)" xlink:href="#_名称未設定グラデーション_7"/>
    <linearGradient id="_名称未設定グラデーション_7-3" data-name="名称未設定グラデーション 7" x1="-91.52" y1="-62.74" x2="-31.49" y2="-62.74" gradientTransform="translate(93.01 275.46)" xlink:href="#_名称未設定グラデーション_7"/>
    <linearGradient id="_名称未設定グラデーション_7-4" data-name="名称未設定グラデーション 7" x1="241.97" y1="667.23" x2="280.87" y2="667.23" gradientTransform="translate(-114.29 -217.46) rotate(-45)" xlink:href="#_名称未設定グラデーション_7"/>
  </defs>
  <g id="_レイヤー_3" data-name="レイヤー_3">
    <g>
      <g>
        <path id="tekagami" class="cls-6" d="M217.15,88.37v-27.55c0-14.62-12.68-26.47-28.33-26.47h-8.66c-1.19-6.08-6.87-10.69-13.71-10.69h-2.38v-.36c0-6.67-4.91-12.61-11.92-13.89-2.74-.5-5.34-.23-7.68.54v-.49c0-5.04-4.22-9.37-9.62-9.46s-9.98,4.04-9.98,9.16v.8c-2.34-.78-4.95-1.04-7.68-.54-7,1.28-11.92,7.22-11.92,13.89v.36s-2.38,0-2.38,0c-6.84,0-12.53,4.61-13.71,10.69h-6.21c-15.65,0-28.33,11.85-28.33,26.47v25.92c-3.69,8.97-5.72,18.7-5.72,28.89v2.29c0,.06,0,.13,0,.19-8.82,14.68-6.56,33.61,6.81,46.11h0c5.04,4.71,11.07,7.95,17.46,9.71,1.6,1.54,3.26,3.02,4.99,4.44-.43,1.79-.67,3.66-.67,5.57h0c0,13.91,12.07,25.19,26.95,25.19h0c6.23,0,11.97-1.98,16.53-5.3,1.99-1.45,4.87.04,4.7,2.39l-6.65,87.57c-.38,4.98,3.84,9.21,9.18,9.21h13.72c5.34,0,9.56-4.23,9.18-9.21l-6.65-87.57c-.18-2.35,2.71-3.84,4.7-2.39,4.56,3.32,10.3,5.3,16.53,5.3h0c14.88,0,26.95-11.28,26.95-25.19h0c0-1.92-.24-3.78-.67-5.57,1.78-1.46,3.49-2.99,5.14-4.58,6.21-1.79,12.06-4.97,16.97-9.57h0c11.67-10.91,14.87-26.72,9.63-40.33-.38-.98-1.37-1.64-2.49-1.64h-11.98c-9.17,0-16.6,6.95-16.6,15.51h0c0,29.72-25.78,53.81-57.58,53.81h0c-31.8,0-57.58-24.09-57.58-53.81v-41.98c0-29.72,25.78-53.81,57.58-53.81h0c25.86,0,47.72,15.93,54.99,37.86,2.16,6.52,8.57,10.99,15.87,10.99h8.58c1.45,0,2.63-1.1,2.63-2.46Z"/>
        <g id="make">
          <path class="cls-1" d="M86.98,162.78c-5.67,0-10.8-3.57-12.77-8.89l-5.04-13.61c-1.26-3.41-1.12-7.11.4-10.41,1.52-3.3,4.23-5.82,7.64-7.08l80.22-29.68c1.52-.56,3.1-.85,4.71-.85,1.04,0,2.08.12,3.09.36,1.01.24,1.81.96,2.14,1.95.33.99.13,2.05-.53,2.85l-2.9,3.49c-.11.14-.1.27-.06.37.03.09.11.21.28.24l5.75.98c1.06.18,1.91.89,2.29,1.9.37,1.01.19,2.1-.5,2.93l-3.73,4.49c-.11.14-.1.27-.06.37.03.09.11.21.29.24l5.75.98c1.06.18,1.91.89,2.28,1.9.37,1.01.19,2.1-.5,2.93l-3.73,4.49c-.11.14-.1.27-.06.37.03.09.11.21.29.24l3.2.55c1.08.18,1.97.95,2.33,1.99.35,1.02.11,2.15-.62,2.93-1.46,1.56-3.21,2.73-5.22,3.47l-80.22,29.68c-1.52.56-3.11.85-4.72.85h0Z"/>
          <path class="cls-2" d="M162.14,93.75c.93,0,1.86.11,2.75.32,1.06.25,1.49,1.54.79,2.38l-2.9,3.49c-.92,1.11-.3,2.8,1.12,3.04l5.75.98c1.12.19,1.61,1.52.88,2.39l-3.73,4.49c-.92,1.11-.3,2.8,1.12,3.04l5.75.98c1.12.19,1.61,1.52.88,2.39l-3.73,4.49c-.92,1.11-.3,2.8,1.12,3.04l3.2.55c1.14.19,1.64,1.58.86,2.42-1.24,1.34-2.81,2.41-4.64,3.09l-80.22,29.68c-1.39.51-2.81.76-4.2.76-4.92,0-9.55-3.02-11.36-7.91l-5.04-13.61c-2.32-6.27.88-13.24,7.15-15.56l80.22-29.68c1.38-.51,2.8-.75,4.19-.75M162.14,90.75c-1.78,0-3.54.32-5.23.94l-80.22,29.68c-3.79,1.4-6.8,4.19-8.48,7.86-1.69,3.67-1.84,7.77-.44,11.56l5.04,13.61c2.18,5.9,7.88,9.87,14.17,9.87,1.79,0,3.55-.32,5.24-.94l80.22-29.68c2.23-.83,4.18-2.12,5.8-3.86,1.11-1.19,1.47-2.89.95-4.44-.53-1.57-1.87-2.71-3.49-2.99l-1.27-.22,2.48-2.99c1.02-1.22,1.3-2.91.75-4.41-.55-1.49-1.87-2.59-3.44-2.85l-3.82-.65,2.48-2.99c1.02-1.22,1.3-2.91.75-4.41-.55-1.49-1.87-2.59-3.44-2.85l-3.82-.65,1.65-1.98c1-1.2,1.3-2.8.8-4.29-.5-1.48-1.7-2.57-3.22-2.93-1.13-.26-2.28-.4-3.43-.4h0Z"/>
        </g>
        <g id="star2">
          <path class="cls-5" d="M79.69,279.61c-1.26,0-2.36-.76-2.79-1.95l-3.11-8.42-8.4-3.1c-1.18-.44-1.94-1.53-1.94-2.79s.76-2.36,1.94-2.79l8.42-3.11,3.1-8.4c.44-1.18,1.53-1.95,2.79-1.95s2.36.76,2.79,1.95l3.11,8.42,8.4,3.1c1.18.44,1.95,1.53,1.95,2.79s-.76,2.36-1.95,2.79l-8.42,3.11-3.1,8.4c-.44,1.18-1.53,1.95-2.79,1.95Z"/>
          <path class="cls-2" d="M79.69,248.6c.57,0,1.15.32,1.39.97l3.11,8.41c.15.4.47.72.87.87l8.41,3.11c1.29.48,1.29,2.3,0,2.77l-8.41,3.11c-.4.15-.72.47-.87.87l-3.11,8.41c-.24.64-.81.97-1.39.97s-1.15-.32-1.39-.97l-3.11-8.41c-.15-.4-.47-.72-.87-.87l-8.41-3.11c-1.29-.48-1.29-2.3,0-2.77l8.41-3.11c.4-.15.72-.47.87-.87l3.11-8.41c.24-.64.81-.97,1.39-.97M79.69,245.6c-1.89,0-3.54,1.15-4.2,2.92l-2.87,7.76-7.76,2.87c-1.78.66-2.92,2.31-2.92,4.2s1.15,3.54,2.92,4.2l7.76,2.87,2.87,7.76c.66,1.78,2.31,2.92,4.2,2.92s3.54-1.15,4.2-2.92l2.87-7.76,7.76-2.87c1.78-.66,2.92-2.31,2.92-4.2s-1.15-3.54-2.92-4.2l-7.76-2.87-2.87-7.76c-.66-1.78-2.31-2.92-4.2-2.92h0Z"/>
        </g>
        <g id="star1">
          <path class="cls-3" d="M56.14,242.73c-.77,0-1.54-.17-2.27-.51l-21.38-9.83c-.31-.14-.65-.22-.99-.22s-.68.07-.99.22l-21.38,9.83c-.73.34-1.49.51-2.27.51-1.8,0-3.54-.96-4.53-2.51-1-1.56-1.12-3.43-.34-5.13l9.83-21.38c.29-.63.29-1.36,0-1.99l-9.83-21.38c-.78-1.7-.66-3.57.34-5.13.99-1.55,2.73-2.51,4.53-2.51.77,0,1.54.17,2.27.51l21.38,9.83c.31.14.65.22.99.22s.68-.07.99-.22l21.38-9.83c.73-.34,1.49-.51,2.27-.51,1.8,0,3.53.96,4.53,2.51,1,1.56,1.12,3.43.34,5.13l-9.83,21.38c-.29.63-.29,1.36,0,1.99l9.83,21.38c.78,1.7.66,3.57-.34,5.13-.99,1.55-2.73,2.51-4.53,2.51Z"/>
          <path class="cls-2" d="M56.14,184.21c2.63,0,4.76,2.79,3.5,5.51l-9.83,21.38c-.47,1.03-.47,2.21,0,3.24l9.83,21.38c1.25,2.72-.87,5.51-3.5,5.51-.53,0-1.09-.11-1.64-.37l-21.38-9.83c-.51-.24-1.07-.35-1.62-.35s-1.11.12-1.62.35l-21.38,9.83c-.55.25-1.11.37-1.64.37-2.63,0-4.76-2.79-3.5-5.51l9.83-21.38c.47-1.03.47-2.21,0-3.24l-9.83-21.38c-1.25-2.72.87-5.51,3.5-5.51.53,0,1.09.11,1.64.37l21.38,9.83c.51.24,1.07.35,1.62.35s1.11-.12,1.62-.35l21.38-9.83c.55-.25,1.11-.37,1.64-.37M56.14,181.21h0c-.99,0-1.97.22-2.89.64l-21.38,9.83c-.12.05-.24.08-.37.08s-.25-.03-.37-.08l-21.38-9.83c-.93-.43-1.9-.64-2.89-.64-2.34,0-4.5,1.2-5.79,3.2-1.26,1.97-1.43,4.42-.44,6.56l9.83,21.38c.11.23.11.5,0,.73L.64,234.46c-.99,2.14-.82,4.6.44,6.56,1.29,2.01,3.45,3.2,5.79,3.2.99,0,1.97-.22,2.89-.64l21.38-9.83c.12-.05.24-.08.37-.08s.25.03.37.08l21.38,9.83c.93.43,1.9.64,2.89.64,2.34,0,4.5-1.2,5.79-3.2,1.26-1.97,1.43-4.42.44-6.56l-9.83-21.38c-.11-.23-.11-.5,0-.73l9.83-21.38c.99-2.14.82-4.6-.44-6.56-1.29-2.01-3.45-3.2-5.79-3.2h0Z"/>
        </g>
      </g>
      <g>
        <path class="cls-6" d="M332.46,190.67c0,1-.6,1.8-2,1.8-.2,0-11.2-1.2-22.8-1.2-5.8,0-11.6.2-16.4,1.2h-.4c-1,0-1.6-.8-1.6-1.8s.6-2.4,1.8-3.2c13.2-1.2,13.4-8.8,13.4-29.8,0-1.6,0-15.6-.2-17.4-.8-15-11.2-20-18.2-20-13.8,0-21.2,10.8-21.8,16.2-.2,2.6-.4,9-.4,16,0,9.6.2,20.6.6,23.8.4,6,3.4,10.8,13.6,11,1,1,1.4,2,1.4,3,0,1.2-.6,2-1.6,2-.2,0-11.2-1.2-22.4-1.2-6,0-12.2.4-16.8,1.4h-.2c-1,0-1.6-1-1.6-2.2,0-1,.4-2.4,1.6-3.2,10.2-1,11.4-5.2,11.8-10.6.8-10.2,1.2-60.2,1.2-78.8,0-39.2-.2-39.8-12-42.8-.6-.2-1-1.2-1-2,0-1,.4-1.8.8-1.8,9.4-1.8,18-5.4,23.8-8.4h.4c.8,0,2,.4,2,1.8-.8,18.4-.6,34.6-1,66l-.4,13c0,.6.4,1,.8,1,.2,0,.4,0,.6-.2,11-12.8,21.8-12.8,24.6-12.8,14.8,0,27,9.2,27.6,26.2.2,3.8.2,14.6.4,20,0,5.6,0,16,.2,18.4.4,6,3,11.2,12.6,11.4,1,.8,1.6,2,1.6,3.2Z"/>
        <path class="cls-6" d="M381.86,195.47c-20,0-38.2-14.4-38.2-41.2,0-20.6,15.2-43.2,39.4-43.2,22.2,0,27.6,17.4,27.6,21,0,2.8-2.4,8.6-13.6,9.2-9.8.4-24.6.6-34,.6-4.2,0-5.8,1.2-5.8,8.8,0,18.2,10.8,35.4,30.2,35.4,11.6,0,16.8-5,19.6-7.6.4-.4.8-.6,1.4-.6,1.6,0,3.2,2,3.2,3.6,0,1.8-8.4,14-29.8,14ZM379.86,116.47c-16.6,0-21.4,17.8-21.4,20.4,0,.6.2,1,.6,1h.4c6.6-2.4,19.8-3.6,30.2-4.6,1.8-.2,6-1,6-4.4-.2-4.6-5-12.4-15.8-12.4Z"/>
        <path class="cls-6" d="M464.06,195.47c-20,0-38.2-14.4-38.2-41.2,0-20.6,15.2-43.2,39.4-43.2,22.2,0,27.6,17.4,27.6,21,0,2.8-2.4,8.6-13.6,9.2-9.8.4-24.6.6-34,.6-4.2,0-5.8,1.2-5.8,8.8,0,18.2,10.8,35.4,30.2,35.4,11.6,0,16.8-5,19.6-7.6.4-.4.8-.6,1.4-.6,1.6,0,3.2,2,3.2,3.6,0,1.8-8.4,14-29.8,14ZM462.06,116.47c-16.6,0-21.4,17.8-21.4,20.4,0,.6.2,1,.6,1h.4c6.6-2.4,19.8-3.6,30.2-4.6,1.8-.2,6-1,6-4.4-.2-4.6-5-12.4-15.8-12.4Z"/>
        <path class="cls-6" d="M566.46,116.67c0,4.4-5.2,10-10,10-1,0-2-.2-2.8-.6-3.2-1.6-6-2.2-8.4-2.2-8.2,0-11.6,7.8-12,12.8-.2,2.2-.2,5.8-.2,9.6,0,7.4.2,16,.2,17.8,0,18.8.4,21.2,15.8,23.2,1,.8,1.2,1.8,1.2,2.8,0,1.2-.6,2.2-1.6,2.2-.2,0-12.2-1-24.2-1-6,0-12,.2-16.6,1h-.2c-1,0-1.8-.8-1.8-2,0-.8.6-1.8,1.6-2.8,12.6-1,13-7.6,13-22.8v-24.2c-.2-10.2-.2-17.6-9.4-19.6-.8-.2-1.2-1-1.2-1.8,0-.6.4-1.4,1.2-1.6,8.2-1.8,16.4-6.4,19.2-7.6,1.2.2,2.4,1.2,2.4,3.2l-.6,10.2v.4s0,.8,1.2.8c7.2-7.4,17.4-13.2,25-13.2,6,0,8.2,2.4,8.2,5.4Z"/>
      </g>
      <g>
        <path class="cls-6" d="M461.4,294.88c0,.75-.3,1.35-1.35,1.35,0,0-8.7-.75-17.1-.75-4.35,0-8.55.15-11.55.75h-.3c-.6,0-1.05-.6-1.05-1.35s.3-1.65,1.05-2.4c8.7-1.05,10.05-1.65,10.05-29.55,0-7.95-.6-20.4-14.25-20.4-10.65,0-16.35,7.8-17.4,13.2.15,5.25.3,8.85.3,13.2v3.3c0,1.5-.15,4.5-.15,7.2,0,7.8.3,12.45,9.15,13.05.6.6.9,1.35.9,2.1,0,.9-.45,1.65-1.35,1.65,0,0-8.1-.75-16.2-.75-4.2,0-8.25.15-11.25.75h-.3c-.75,0-1.2-.6-1.2-1.35s.3-1.65,1.2-2.4c8.1-1.05,8.55-3.3,9.15-19.8,0-2.55-.15-12.45-.3-15.75-.45-10.95-7.95-14.7-14.55-14.7-10.5,0-16.05,7.8-16.5,12.15-.15,1.95-.3,4.8-.3,7.65,0,4.35.15,8.85.3,10.95.15,2.7.15,4.5.15,5.85,0,8.85,1.2,12.6,9.6,13.65.6.6.9,1.5.9,2.1,0,.9-.45,1.65-1.2,1.65-.15,0-7.35-.9-15.75-.9-4.05,0-8.4.15-12.3.9h-.15c-.75,0-1.2-.75-1.2-1.65,0-.6.3-1.5,1.05-2.1,8.4-.9,8.4-1.35,9-20.4v-15.75c-.3-8.7.75-10.8-6.45-12.75-.6-.15-.9-.9-.9-1.65s.3-1.5.9-1.65c6.45-1.05,10.35-4.05,13.5-5.55.15-.15.3-.15.45-.15.75,0,1.5.75,1.65,1.8v.6c0,2.1-.3,7.8-.3,7.8,0,.3.45.9.9.9q.15,0,.3-.15c8.85-8.1,13.8-10.2,20.25-10.2,8.1,0,15.3,3.6,18.6,10.5.45.9.75,1.35,1.05,1.35s.6-.15,1.05-.75c9.75-10.8,18.3-11.1,21-11.1,11.25,0,20.7,6.6,20.7,21.3v15c0,4.35,0,12.75.15,13.95.6,3.75,1.95,6.45,9,6.75.6.6,1.05,1.65,1.05,2.55Z"/>
        <path class="cls-6" d="M499.2,298.47c-15,0-28.65-10.8-28.65-30.9,0-15.45,11.4-32.4,29.55-32.4,16.65,0,20.7,13.05,20.7,15.75,0,2.1-1.8,6.45-10.2,6.9-7.35.3-18.45.45-25.5.45-3.15,0-4.35.9-4.35,6.6,0,13.65,8.1,26.55,22.65,26.55,8.7,0,12.6-3.75,14.7-5.7.3-.3.6-.45,1.05-.45,1.2,0,2.4,1.5,2.4,2.7,0,1.35-6.3,10.5-22.35,10.5ZM497.7,239.23c-12.45,0-16.05,13.35-16.05,15.3,0,.45.15.75.45.75h.3c4.95-1.8,14.85-2.7,22.65-3.45,1.35-.15,4.5-.75,4.5-3.3-.15-3.45-3.75-9.3-11.85-9.3Z"/>
      </g>
      <g id="star3">
        <path class="cls-4" d="M542.37,95.36c-1.67,0-3.12-1.01-3.7-2.57l-5.14-13.9c-.1-.26-.3-.46-.56-.56l-13.9-5.14c-1.56-.58-2.57-2.03-2.57-3.7s1.01-3.12,2.57-3.7l13.9-5.14c.26-.1.46-.3.56-.56l5.14-13.89c.58-1.56,2.03-2.57,3.7-2.57s3.12,1.01,3.7,2.57l5.14,13.9c.09.26.3.46.56.56l13.89,5.14c1.56.58,2.58,2.03,2.57,3.7,0,1.67-1.01,3.12-2.57,3.7l-13.9,5.14c-.26.1-.46.3-.56.56l-5.14,13.9c-.58,1.56-2.03,2.57-3.7,2.57Z"/>
        <path class="cls-2" d="M542.37,45.13c.95,0,1.9.53,2.29,1.59l5.14,13.9c.25.67.77,1.2,1.44,1.44l13.9,5.14c2.13.79,2.13,3.79,0,4.58l-13.9,5.14c-.67.25-1.2.77-1.44,1.44l-5.14,13.9c-.39,1.06-1.34,1.59-2.29,1.59s-1.9-.53-2.29-1.59l-5.14-13.9c-.25-.67-.77-1.2-1.44-1.44l-13.9-5.14c-2.13-.79-2.13-3.79,0-4.58l13.9-5.14c.67-.25,1.2-.77,1.44-1.44l5.14-13.9c.39-1.06,1.34-1.59,2.29-1.59M542.37,42.13c-2.3,0-4.31,1.39-5.1,3.55l-5.05,13.65-13.66,5.05c-2.16.8-3.55,2.8-3.55,5.1s1.39,4.31,3.55,5.1l13.66,5.05,5.05,13.65c.8,2.16,2.8,3.55,5.1,3.55s4.31-1.39,5.1-3.55l5.05-13.65,13.66-5.05c2.16-.8,3.55-2.8,3.55-5.1s-1.39-4.31-3.55-5.1l-13.66-5.05-5.05-13.65c-.8-2.16-2.8-3.55-5.1-3.55h0Z"/>
      </g>
    </g>
  </g>
</svg>