<?xml version="1.0" encoding="UTF-8"?>
<svg id="_レイヤー_2" data-name="レイヤー_2" xmlns="http://www.w3.org/2000/svg" xmlns:xlink="http://www.w3.org/1999/xlink" viewBox="0 0 198.83 198.72">
  <defs>
    <style>
      .cls-1, .cls-2, .cls-3, .cls-4, .cls-5, .cls-6 {
        fill: none;
      }

      .cls-2 {
        stroke-dasharray: 10.31 0 0 0 .01 10.29;
      }

      .cls-2, .cls-3, .cls-4, .cls-5, .cls-6 {
        stroke: #75726d;
        stroke-miterlimit: 10;
      }

      .cls-3 {
        stroke-dasharray: 0 0 .01 10.29 .01 0;
      }

      .cls-5 {
        stroke-dasharray: 0 0 0 9.76 0 0;
      }

      .cls-7 {
        clip-path: url(#clippath);
      }

      .cls-6 {
        stroke-dasharray: 9.78 0 0 0 0 9.76;
      }
    </style>
    <clipPath id="clippath">
      <rect class="cls-1" x=".05" y="-.05" width="198.72" height="198.83" transform="translate(198.77 -.05) rotate(90)"/>
    </clipPath>
  </defs>
  <g id="_レイヤー_1-2" data-name="レイヤー_1">
    <g class="cls-7">
      <g>
        <g>
          <polyline class="cls-4" points="-3.52 105.31 .01 101.77 3.55 105.31"/>
          <line class="cls-5" x1="3.55" y1="105.31" x2="9.75" y2="111.51"/>
          <line class="cls-6" x1="10.46" y1="112.22" x2="93.43" y2="195.19"/>
          <polyline class="cls-4" points="93.43 195.19 96.97 198.73 93.43 202.26"/>
        </g>
        <g>
          <polyline class="cls-4" points="100.5 202.26 96.97 198.73 100.5 195.19"/>
          <line class="cls-3" x1="100.5" y1="195.19" x2="107.08" y2="188.61"/>
          <line class="cls-2" x1="107.79" y1="187.9" x2="195.26" y2="100.44"/>
          <polyline class="cls-4" points="195.26 100.44 198.79 96.9 202.33 100.44"/>
        </g>
        <g>
          <polyline class="cls-4" points="3.55 98.24 .01 101.77 -3.52 98.24"/>
          <polyline class="cls-4" points="98.3 -3.59 101.83 -.05 98.3 3.48"/>
          <line class="cls-3" x1="98.3" y1="3.48" x2="91.72" y2="10.07"/>
          <line class="cls-2" x1="91.01" y1="10.77" x2="3.55" y2="98.24"/>
        </g>
        <g>
          <polyline class="cls-4" points="202.33 93.37 198.79 96.9 195.26 93.37"/>
          <line class="cls-5" x1="195.26" y1="93.37" x2="189.05" y2="87.16"/>
          <line class="cls-6" x1="188.34" y1="86.45" x2="105.37" y2="3.48"/>
          <polyline class="cls-4" points="105.37 3.48 101.83 -.05 105.37 -3.59"/>
        </g>
      </g>
    </g>
  </g>
</svg>