<?xml version="1.0" encoding="UTF-8"?>
<svg id="_レイヤー_2" data-name="レイヤー_2" xmlns="http://www.w3.org/2000/svg" viewBox="0 0 176.48 314.92">
  <defs>
    <style>
      .cls-1 {
        fill: #ff7bac;
      }

      .cls-2 {
        fill: aqua;
      }
    </style>
  </defs>
  <g id="_レイヤー_1-2" data-name="レイヤー_1">
    <g>
      <g>
        <path class="cls-1" d="M160.68,79.96H15.8c-7.8,0-13.78,6.91-12.67,14.63l30.51,210.78c.54,3.76,3.77,6.55,7.56,6.55h94.06c3.8,0,7.02-2.79,7.56-6.55l30.51-210.78c1.12-7.72-4.87-14.63-12.67-14.63ZM88.24,225.89c-22.78,0-41.24-18.46-41.24-41.24s18.46-41.24,41.24-41.24,41.24,18.46,41.24,41.24-18.46,41.24-41.24,41.24Z"/>
        <path d="M135.27,314.92H41.21c-5.25,0-9.78-3.92-10.53-9.12L.16,95.02c-.66-4.54.69-9.13,3.69-12.6,3-3.47,7.36-5.46,11.94-5.46h144.88c4.59,0,8.94,1.99,11.94,5.46,3,3.47,4.35,8.06,3.69,12.6l-30.51,210.78c-.75,5.2-5.28,9.12-10.53,9.12ZM15.8,82.96c-2.85,0-5.54,1.23-7.41,3.38-1.86,2.15-2.7,5-2.29,7.82l30.51,210.78c.33,2.27,2.3,3.98,4.59,3.98h94.06c2.29,0,4.27-1.71,4.59-3.98l30.51-210.78c.41-2.82-.43-5.66-2.29-7.82-1.86-2.15-4.56-3.39-7.41-3.39H15.8ZM88.24,228.89c-24.39,0-44.24-19.85-44.24-44.24s19.85-44.24,44.24-44.24,44.24,19.85,44.24,44.24-19.85,44.24-44.24,44.24ZM88.24,146.41c-21.09,0-38.24,17.15-38.24,38.24s17.15,38.24,38.24,38.24,38.24-17.15,38.24-38.24-17.15-38.24-38.24-38.24Z"/>
      </g>
      <g>
        <path class="cls-2" d="M107.93,36.09h-39.39c-2.05,0-3.8-1.47-4.16-3.49l-4.39-24.64c-.46-2.59,1.53-4.97,4.16-4.97h48.18c2.63,0,4.62,2.38,4.16,4.97l-4.39,24.64c-.36,2.02-2.11,3.49-4.16,3.49Z"/>
        <path d="M107.93,39.09h-39.39c-3.51,0-6.5-2.51-7.11-5.96l-4.4-24.64c-.38-2.11.2-4.26,1.57-5.91s3.4-2.59,5.54-2.59h48.18c2.14,0,4.16.94,5.54,2.59s1.95,3.8,1.57,5.91l-4.39,24.64c-.62,3.45-3.61,5.96-7.12,5.96ZM64.15,6c-.5,0-.8.28-.94.44-.14.16-.35.51-.27,1l4.4,24.64c.1.59.61,1.01,1.21,1.01h39.39c.6,0,1.1-.43,1.21-1.01l4.39-24.64c.09-.49-.13-.84-.27-1-.14-.16-.44-.44-.94-.44h-48.18Z"/>
      </g>
      <g>
        <rect class="cls-2" x="80.04" y="36.09" width="16.41" height="43.87"/>
        <path d="M99.44,82.96h-22.41v-49.87h22.41v49.87ZM83.04,76.96h10.41v-37.87h-10.41v37.87Z"/>
      </g>
      <g>
        <path class="cls-2" d="M115.78,11.96c25.51,0,33.23,12.28,35.55,19.32.78,2.37-.99,4.82-3.49,4.82h-4.89c-1.35,0-2.58-.74-3.23-1.93-1.98-3.63-7.99-11.15-23.95-11.75"/>
        <path d="M147.85,39.09h-4.89c-2.44,0-4.68-1.34-5.86-3.49-1.57-2.88-6.81-9.64-21.43-10.19l.23-6c17.69.67,24.41,9.53,26.47,13.31.13.23.35.37.6.37h4.89c.28,0,.45-.15.54-.28.09-.13.18-.33.09-.6-2.13-6.45-9.21-17.26-32.71-17.26v-6c27.27,0,35.77,13.39,38.4,21.38.67,2.03.32,4.27-.93,6-1.25,1.73-3.27,2.76-5.41,2.76Z"/>
      </g>
    </g>
  </g>
</svg>