<?xml version="1.0" encoding="UTF-8"?>
<svg id="_レイヤー_2" data-name="レイヤー_2" xmlns="http://www.w3.org/2000/svg" viewBox="0 0 145.78 253.52">
  <defs>
    <style>
      .cls-1 {
        fill: #ff7bac;
      }

      .cls-2 {
        fill: aqua;
      }
    </style>
  </defs>
  <g id="_レイヤー_1-2" data-name="レイヤー_1">
    <g>
      <g>
        <path class="cls-1" d="M134.25,63.4H11.53c-4.71,0-8.53,3.82-8.53,8.53v170.06c0,4.71,3.82,8.53,8.53,8.53h122.72c4.71,0,8.53-3.82,8.53-8.53V71.93c0-4.71-3.82-8.53-8.53-8.53ZM72.89,198.2c-22.78,0-41.24-18.46-41.24-41.24s18.46-41.24,41.24-41.24,41.24,18.46,41.24,41.24-18.46,41.24-41.24,41.24Z"/>
        <path d="M134.25,253.52H11.53c-6.36,0-11.53-5.17-11.53-11.53V71.93c0-6.36,5.17-11.53,11.53-11.53h122.72c6.36,0,11.53,5.17,11.53,11.53v170.06c0,6.36-5.17,11.53-11.53,11.53ZM11.53,66.4c-3.05,0-5.53,2.48-5.53,5.53v170.06c0,3.05,2.48,5.53,5.53,5.53h122.72c3.05,0,5.53-2.48,5.53-5.53V71.93c0-3.05-2.48-5.53-5.53-5.53H11.53ZM72.89,201.2c-24.39,0-44.24-19.85-44.24-44.24s19.85-44.24,44.24-44.24,44.24,19.85,44.24,44.24-19.85,44.24-44.24,44.24ZM72.89,118.72c-21.08,0-38.24,17.15-38.24,38.24s17.15,38.24,38.24,38.24,38.24-17.15,38.24-38.24-17.15-38.24-38.24-38.24Z"/>
      </g>
      <g>
        <rect class="cls-2" x="25.85" width="94.09" height="64.78" rx="7.71" ry="7.71"/>
        <path d="M112.23,6c.94,0,1.71.77,1.71,1.71v49.37c0,.94-.77,1.71-1.71,1.71H33.55c-.94,0-1.71-.77-1.71-1.71V7.71c0-.94.77-1.71,1.71-1.71h78.68M112.23,0H33.55C29.3,0,25.85,3.45,25.85,7.71v49.37c0,4.26,3.45,7.71,7.71,7.71h78.68c4.26,0,7.71-3.45,7.71-7.71V7.71C119.94,3.45,116.49,0,112.23,0h0Z"/>
      </g>
    </g>
  </g>
</svg>