<?xml version="1.0" encoding="UTF-8"?>
<svg id="_レイヤー_2" data-name="レイヤー_2" xmlns="http://www.w3.org/2000/svg" viewBox="0 0 145.78 311.19">
  <defs>
    <style>
      .cls-1 {
        fill: #ff7bac;
      }

      .cls-2 {
        fill: aqua;
      }
    </style>
  </defs>
  <g id="_レイヤー_1-2" data-name="レイヤー_1">
    <g>
      <g>
        <path class="cls-1" d="M133.09,78H12.7c-5.36,0-9.7,4.34-9.7,9.7v210.8c0,5.36,4.34,9.7,9.7,9.7h120.39c5.36,0,9.7-4.34,9.7-9.7V87.69c0-5.36-4.34-9.7-9.7-9.7ZM72.89,223.59c-22.78,0-41.24-18.46-41.24-41.24s18.46-41.24,41.24-41.24,41.24,18.46,41.24,41.24-18.46,41.24-41.24,41.24Z"/>
        <path d="M133.09,311.19H12.7c-7,0-12.7-5.7-12.7-12.7V87.69c0-7,5.7-12.7,12.7-12.7h120.39c7,0,12.7,5.7,12.7,12.7v210.8c0,7-5.7,12.7-12.7,12.7ZM12.7,81c-3.69,0-6.7,3-6.7,6.7v210.8c0,3.69,3,6.7,6.7,6.7h120.39c3.69,0,6.7-3,6.7-6.7V87.69c0-3.69-3-6.7-6.7-6.7H12.7ZM72.89,226.59c-24.39,0-44.24-19.85-44.24-44.24s19.85-44.24,44.24-44.24,44.24,19.85,44.24,44.24-19.85,44.24-44.24,44.24ZM72.89,144.11c-21.09,0-38.24,17.15-38.24,38.24s17.15,38.24,38.24,38.24,38.24-17.15,38.24-38.24-17.15-38.24-38.24-38.24Z"/>
      </g>
      <g>
        <rect class="cls-2" x="25.85" y="0" width="94.09" height="79.7" rx="9.07" ry="9.07"/>
        <path d="M110.87,6c1.69,0,3.07,1.38,3.07,3.07v61.56c0,1.69-1.38,3.07-3.07,3.07H34.91c-1.69,0-3.07-1.38-3.07-3.07V9.07c0-1.69,1.38-3.07,3.07-3.07h75.96M110.87,0H34.91c-5.01,0-9.07,4.06-9.07,9.07v61.56c0,5.01,4.06,9.07,9.07,9.07h75.96c5.01,0,9.07-4.06,9.07-9.07V9.07c0-5.01-4.06-9.07-9.07-9.07h0Z"/>
      </g>
    </g>
  </g>
</svg>