<?xml version="1.0" encoding="UTF-8"?>
<svg id="_レイヤー_2" data-name="レイヤー_2" xmlns="http://www.w3.org/2000/svg" viewBox="0 0 161.4 312.24">
  <defs>
    <style>
      .cls-1 {
        fill: #ff7bac;
      }

      .cls-2 {
        fill: aqua;
      }
    </style>
  </defs>
  <g id="_レイヤー_1-2" data-name="レイヤー_1">
    <g>
      <g>
        <rect class="cls-2" x="26.34" y="260.98" width="108.72" height="51.26" rx="10.02" ry="10.02"/>
        <path d="M125.04,266.98c2.22,0,4.02,1.8,4.02,4.02v31.22c0,2.22-1.8,4.02-4.02,4.02H36.36c-2.22,0-4.02-1.8-4.02-4.02v-31.22c0-2.22,1.8-4.02,4.02-4.02h88.68M125.04,260.98H36.36c-5.53,0-10.02,4.49-10.02,10.02v31.22c0,5.53,4.49,10.02,10.02,10.02h88.68c5.53,0,10.02-4.49,10.02-10.02v-31.22c0-5.53-4.49-10.02-10.02-10.02h0Z"/>
      </g>
      <g>
        <rect class="cls-2" x="0" y="0" width="161.4" height="24.83" rx="4.55" ry="4.55"/>
        <path d="M155.4,6v12.83H6V6h149.4M156.85,0H4.55C2.04,0,0,2.04,0,4.55v15.73c0,2.51,2.04,4.55,4.55,4.55h152.3c2.51,0,4.55-2.04,4.55-4.55V4.55C161.4,2.04,159.36,0,156.85,0h0Z"/>
      </g>
      <g>
        <path class="cls-1" d="M0,18.82l26.34,247.98h108.72l26.34-247.98H0ZM80.7,184.05c-22.78,0-41.24-18.46-41.24-41.24s18.46-41.24,41.24-41.24,41.24,18.46,41.24,41.24-18.46,41.24-41.24,41.24Z"/>
        <path d="M154.73,24.82l-25.07,235.98H31.74L6.67,24.82h148.05M80.7,190.05c26.05,0,47.24-21.19,47.24-47.24s-21.19-47.24-47.24-47.24-47.24,21.19-47.24,47.24,21.19,47.24,47.24,47.24M161.4,18.82H0l26.34,247.98h108.72l26.34-247.98h0ZM80.7,184.05c-22.78,0-41.24-18.46-41.24-41.24s18.46-41.24,41.24-41.24,41.24,18.46,41.24,41.24-18.46,41.24-41.24,41.24h0Z"/>
      </g>
      <rect x="77.7" y=".97" width="6" height="22.65"/>
      <rect x="36.46" y=".97" width="6" height="22.65"/>
      <rect x="118.94" width="6" height="23.11"/>
      <rect x="77.7" y="263.01" width="6" height="46.89"/>
      <rect x="50.21" y="262.9" width="6" height="49.34"/>
      <rect x="106.37" y="262.57" width="6" height="49.34"/>
    </g>
  </g>
</svg>