<?xml version="1.0" encoding="UTF-8"?>
<svg id="_レイヤー_2" data-name="レイヤー_2" xmlns="http://www.w3.org/2000/svg" viewBox="0 0 122.23 229.42">
  <defs>
    <style>
      .cls-1 {
        fill: #ff7bac;
      }

      .cls-2 {
        fill: aqua;
      }
    </style>
  </defs>
  <g id="_レイヤー_1-2" data-name="レイヤー_1">
    <g>
      <g>
        <path class="cls-1" d="M61.11,81.05h0c-31.98,0-57.91,25.93-57.91,57.91v81.09c0,3.41,2.76,6.17,6.17,6.17h103.48c3.41,0,6.17-2.76,6.17-6.17v-81.09c0-31.98-25.93-57.91-57.91-57.91ZM61.11,185.15c-17.41,0-31.52-14.11-31.52-31.52s14.11-31.52,31.52-31.52,31.52,14.11,31.52,31.52-14.11,31.52-31.52,31.52Z"/>
        <path d="M112.85,229.42H9.37c-5.17,0-9.37-4.21-9.37-9.37v-81.09c0-33.7,27.42-61.11,61.11-61.11h0c33.7,0,61.11,27.42,61.11,61.11v81.09c0,5.17-4.2,9.37-9.37,9.37ZM61.11,84.26c-30.17,0-54.71,24.54-54.71,54.71v81.09c0,1.63,1.33,2.96,2.96,2.96h103.48c1.63,0,2.96-1.33,2.96-2.96v-81.09c0-30.17-24.54-54.71-54.71-54.71ZM61.11,188.36c-19.15,0-34.72-15.58-34.72-34.72s15.58-34.72,34.72-34.72,34.72,15.58,34.72,34.72-15.58,34.72-34.72,34.72ZM61.11,125.32c-15.61,0-28.31,12.7-28.31,28.31s12.7,28.31,28.31,28.31,28.31-12.7,28.31-28.31-12.7-28.31-28.31-28.31Z"/>
      </g>
      <g>
        <g>
          <rect class="cls-1" x="6.76" y="50.27" width="108.72" height="51.26"/>
          <path d="M109.47,56.27v39.26H12.76v-39.26h96.72M115.47,50.27H6.76v51.26h108.72v-51.26h0Z"/>
        </g>
        <rect x="58.11" y="52.3" width="6" height="46.89"/>
        <rect x="30.62" y="52.19" width="6" height="49.34"/>
        <rect x="86.78" y="51.86" width="6" height="49.34"/>
      </g>
      <g>
        <path class="cls-2" d="M61.11,3h0c10.08,0,18.27,8.18,18.27,18.27v31.03h-36.53v-31.03c0-10.08,8.18-18.27,18.27-18.27Z"/>
        <path d="M82.38,55.3h-42.53V21.27C39.85,9.54,49.39,0,61.11,0s21.27,9.54,21.27,21.27v34.03ZM45.85,49.3h30.53v-28.03c0-8.42-6.85-15.27-15.27-15.27s-15.27,6.85-15.27,15.27v28.03Z"/>
      </g>
    </g>
  </g>
</svg>