<?xml version="1.0" encoding="UTF-8"?>
<svg id="_レイヤー_2" data-name="レイヤー_2" xmlns="http://www.w3.org/2000/svg" xmlns:xlink="http://www.w3.org/1999/xlink" viewBox="0 0 288.57 391.49">
  <defs>
    <style>
      .cls-1 {
        fill: url(#_名称未設定グラデーション_244-2);
      }

      .cls-2 {
        fill: url(#_名称未設定グラデーション_5);
      }

      .cls-3 {
        fill: #f4b1c8;
      }

      .cls-4 {
        fill: #fff;
      }

      .cls-5 {
        fill: url(#_名称未設定グラデーション_244);
      }

      .cls-6 {
        fill: url(#_名称未設定グラデーション_5-2);
      }

      .cls-7 {
        fill: #423f48;
      }
    </style>
    <linearGradient id="_名称未設定グラデーション_244" data-name="名称未設定グラデーション 244" x1="204.01" y1="184.49" x2="204.01" y2="158.52" gradientUnits="userSpaceOnUse">
      <stop offset="0" stop-color="#d597c1"/>
      <stop offset=".92" stop-color="#fff"/>
    </linearGradient>
    <linearGradient id="_名称未設定グラデーション_244-2" data-name="名称未設定グラデーション 244" x1="79.34" y1="187.32" x2="79.34" y2="158.52" xlink:href="#_名称未設定グラデーション_244"/>
    <radialGradient id="_名称未設定グラデーション_5" data-name="名称未設定グラデーション 5" cx="223.34" cy="221.82" fx="223.34" fy="221.82" r="25.51" gradientUnits="userSpaceOnUse">
      <stop offset="0" stop-color="#ffb6ce"/>
      <stop offset="1" stop-color="#fff"/>
    </radialGradient>
    <radialGradient id="_名称未設定グラデーション_5-2" data-name="名称未設定グラデーション 5" cx="67.78" fx="67.78" r="25.51" xlink:href="#_名称未設定グラデーション_5"/>
  </defs>
  <g id="_レイヤー_1-2" data-name="レイヤー_1">
    <g>
      <g>
        <path class="cls-4" d="M102.5,306.36v65.14s1.11,12.42-9.64,17.8l107.02-2.24c-8.35-5.37-7.49-17.8-7.49-17.8v-65.14"/>
        <path class="cls-7" d="M83.97,391.49l8-4c9.35-4.68,8.57-15.37,8.53-15.82v-.17s0-65.14,0-65.14h4.02v65.06c.08,1.09.48,9.52-5.39,15.73l95.74-2c-4.89-6.27-4.54-14.95-4.48-15.95v-65.07h4.02v65.27c-.01.11-.66,11.31,6.56,15.97l5.54,3.57-122.54,2.56Z"/>
      </g>
      <g>
        <circle class="cls-3" cx="52.85" cy="288.98" r="41.65"/>
        <path class="cls-7" d="M52.85,333.22c-24.4,0-44.25-19.85-44.25-44.25s19.85-44.25,44.25-44.25,44.25,19.85,44.25,44.25-19.85,44.25-44.25,44.25ZM52.85,249.93c-21.53,0-39.05,17.52-39.05,39.05s17.52,39.05,39.05,39.05,39.05-17.52,39.05-39.05-17.52-39.05-39.05-39.05Z"/>
      </g>
      <g>
        <g>
          <circle class="cls-4" cx="32.21" cy="211.71" r="29.63"/>
          <path class="cls-7" d="M32.21,243.92c-17.76,0-32.21-14.45-32.21-32.21s14.45-32.21,32.21-32.21,32.21,14.45,32.21,32.21-14.45,32.21-32.21,32.21ZM32.21,184.65c-14.92,0-27.05,12.13-27.05,27.05s12.13,27.05,27.05,27.05,27.05-12.13,27.05-27.05-12.13-27.05-27.05-27.05Z"/>
        </g>
        <g>
          <circle class="cls-4" cx="256.36" cy="211.71" r="29.63"/>
          <path class="cls-7" d="M256.36,243.92c-17.76,0-32.21-14.45-32.21-32.21s14.45-32.21,32.21-32.21,32.21,14.45,32.21,32.21-14.45,32.21-32.21,32.21ZM256.36,184.65c-14.92,0-27.05,12.13-27.05,27.05s12.13,27.05,27.05,27.05,27.05-12.13,27.05-27.05-12.13-27.05-27.05-27.05Z"/>
        </g>
        <g>
          <path class="cls-4" d="M144.52,314.04h0c-36.49,0-69.47-21.2-91.24-47.11-17.33-20.63-27.44-62.44-27.44-91.49v-66.49C25.85,50.44,73.28,3.01,131.79,3.01h25.47c58.51,0,105.94,47.43,105.94,105.94v66.49c0,28.67-10.51,70.17-27.44,90.69-21.77,26.37-54.37,47.92-91.24,47.92Z"/>
          <path class="cls-7" d="M144.52,316.64c-33.1,0-67.95-17.96-93.23-48.04-10.52-12.52-17.08-30.6-20.73-43.56-4.65-16.51-7.32-34.59-7.32-49.61v-66.49C23.25,49.1,71.94.41,131.79.41h25.47c59.85,0,108.54,48.69,108.54,108.54v66.49c0,28.69-10.49,71.08-28.03,92.34-25.63,31.05-59.61,48.86-93.24,48.86ZM131.79,5.61c-56.98,0-103.34,46.36-103.34,103.34v66.49c0,28.46,10.03,69.84,26.83,89.82,24.3,28.92,57.66,46.18,89.25,46.18h0c32.07,0,64.6-17.12,89.23-46.97,13.19-15.99,26.84-53.66,26.84-89.03v-66.49c0-56.98-46.36-103.34-103.34-103.34h-25.47Z"/>
        </g>
      </g>
      <path class="cls-5" d="M177.06,168.73s28.69-22.96,53.89,0c0,0-11.58,17.45-25.32,15.63-13.74-1.82-28.57-15.63-28.57-15.63Z"/>
      <path class="cls-1" d="M51.93,169.84s29.18-25.47,54.82,0c0,0-11.78,19.35-25.76,17.33-13.97-2.02-29.06-17.33-29.06-17.33Z"/>
      <g>
        <g>
          <path class="cls-7" d="M80.35,187.96c-7.25,0-13.41-2.32-17.64-4.53-7.16-3.75-11.57-8.44-11.75-8.63-.98-1.05-.92-2.7.13-3.67,1.05-.98,2.69-.92,3.67.13h0s4.03,4.26,10.36,7.57c17.45,9.13,31.27.89,39.79-7.64,1.01-1.02,2.66-1.02,3.68,0,1.02,1.02,1.02,2.66,0,3.68-9.99,9.99-19.84,13.1-28.23,13.1Z"/>
          <path class="cls-7" d="M59.78,188.02c-.65,0-1.3-.24-1.8-.72-1.04-.99-1.07-2.64-.08-3.67l4.13-4.3c1-1.04,2.64-1.07,3.67-.08,1.04.99,1.07,2.64.08,3.67l-4.13,4.3c-.51.53-1.19.8-1.88.8Z"/>
          <path class="cls-7" d="M71.92,193.88c-.44,0-.89-.11-1.3-.35-1.24-.72-1.66-2.31-.94-3.55l3.4-5.86c.72-1.24,2.31-1.66,3.55-.94,1.24.72,1.66,2.31.94,3.55l-3.4,5.86c-.48.83-1.35,1.3-2.25,1.3Z"/>
          <path class="cls-7" d="M90.38,193.88c-.77,0-1.53-.34-2.04-.99l-4.61-5.86c-.89-1.13-.69-2.76.43-3.65,1.13-.89,2.76-.69,3.65.43l4.61,5.86c.89,1.13.69,2.76-.43,3.65-.48.38-1.04.56-1.61.56Z"/>
          <path class="cls-7" d="M102.52,185.87c-.47,0-.94-.13-1.37-.39l-4.82-3c-1.22-.76-1.59-2.36-.83-3.58.76-1.22,2.36-1.59,3.58-.83l4.82,3c1.22.76,1.59,2.36.83,3.58-.49.79-1.34,1.23-2.21,1.23Z"/>
        </g>
        <g>
          <path class="cls-7" d="M204.56,186.93c-7.25,0-13.41-2.32-17.64-4.53-7.16-3.75-11.57-8.44-11.75-8.63-.98-1.05-.92-2.7.13-3.67,1.05-.98,2.69-.92,3.67.13h0s4.03,4.26,10.36,7.57c17.45,9.13,31.27.89,39.79-7.64,1.01-1.02,2.66-1.02,3.68,0,1.02,1.02,1.02,2.66,0,3.68-9.99,9.99-19.84,13.1-28.23,13.1Z"/>
          <path class="cls-7" d="M183.99,186.99c-.65,0-1.3-.24-1.8-.72-1.04-.99-1.07-2.64-.08-3.67l4.13-4.3c.99-1.04,2.64-1.07,3.67-.08,1.04.99,1.07,2.64.08,3.67l-4.13,4.3c-.51.53-1.19.8-1.88.8Z"/>
          <path class="cls-7" d="M196.13,192.85c-.44,0-.89-.11-1.3-.35-1.24-.72-1.66-2.31-.94-3.55l3.4-5.86c.72-1.24,2.31-1.66,3.55-.94,1.24.72,1.66,2.31.94,3.55l-3.4,5.86c-.48.83-1.35,1.3-2.25,1.3Z"/>
          <path class="cls-7" d="M214.59,192.85c-.77,0-1.53-.34-2.04-.99l-4.61-5.86c-.89-1.13-.69-2.76.43-3.65,1.13-.89,2.76-.69,3.65.43l4.61,5.86c.89,1.13.69,2.76-.43,3.65-.48.38-1.04.56-1.61.56Z"/>
          <path class="cls-7" d="M226.73,184.84c-.47,0-.94-.13-1.37-.39l-4.82-3c-1.22-.76-1.59-2.36-.83-3.58.76-1.22,2.36-1.59,3.58-.83l4.82,3c1.22.76,1.59,2.36.83,3.58-.49.79-1.34,1.23-2.21,1.23Z"/>
        </g>
        <g>
          <path class="cls-7" d="M138.44,237.98c-.42,0-.84-.12-1.22-.36-1.11-.71-1.87-.76-2.13-.49.06-.06.08-.11.08-.11l-3.72-2.65c.99-1.39,3.98-3.3,8.22-.6,1.06.68,1.38,2.09.7,3.15-.44.68-1.17,1.06-1.93,1.06Z"/>
          <path class="cls-7" d="M152.22,237.98c-.42,0-.84-.12-1.22-.36-1.11-.71-1.87-.76-2.13-.49.06-.06.08-.11.08-.11l-3.71-2.65c.99-1.39,3.98-3.29,8.22-.6,1.06.68,1.38,2.09.7,3.15-.44.68-1.17,1.06-1.93,1.06Z"/>
        </g>
        <g>
          <path class="cls-7" d="M145.15,263.63c-20.39,0-35.06-8.64-35.28-8.77-1.08-.65-1.43-2.05-.78-3.13.65-1.08,2.05-1.43,3.13-.78.43.26,31.17,18.19,64.69-.05,1.11-.6,2.49-.19,3.1.91.6,1.11.19,2.49-.91,3.1-12.02,6.54-23.71,8.72-33.95,8.72Z"/>
          <path class="cls-7" d="M144.73,277.96c-10.61,0-18.21-4.32-18.68-4.6-1.09-.63-1.46-2.03-.82-3.12.64-1.09,2.03-1.46,3.12-.82.62.36,15.61,8.8,32.43-.05,1.12-.59,2.5-.16,3.08.96.59,1.12.16,2.5-.96,3.08-6.48,3.41-12.73,4.55-18.18,4.55Z"/>
        </g>
        <g>
          <path class="cls-4" d="M168.1,128.19s43.1-5.26,75.06,9.08"/>
          <path class="cls-7" d="M243.16,139.56c-.31,0-.63-.06-.93-.2-31.02-13.92-73.42-8.95-73.85-8.9-1.25.15-2.39-.74-2.54-1.99-.15-1.25.74-2.39,1.99-2.54,1.79-.22,44.11-5.17,76.27,9.26,1.15.52,1.66,1.87,1.15,3.02-.38.85-1.21,1.35-2.08,1.35Z"/>
        </g>
        <g>
          <path class="cls-4" d="M117.33,128.19s-43.1-5.26-75.06,9.08"/>
          <path class="cls-7" d="M42.27,139.56c-.87,0-1.7-.5-2.08-1.35-.52-1.15,0-2.5,1.15-3.02,32.17-14.44,74.49-9.48,76.27-9.26,1.25.15,2.14,1.29,1.99,2.54-.15,1.25-1.29,2.14-2.54,1.99-.43-.05-42.86-5.01-73.85,8.9-.3.14-.62.2-.93.2Z"/>
        </g>
      </g>
      <circle class="cls-2" cx="223.34" cy="221.82" r="25.51"/>
      <circle class="cls-6" cx="67.78" cy="221.82" r="25.51"/>
      <path class="cls-7" d="M66.17,320.14c-14.5,0-25.73-6.39-33.12-12.45-12.18-9.99-19.43-23.54-22.16-32.88l4.99-1.46c2.51,8.6,9.21,21.07,20.47,30.32,6.87,5.64,17.38,11.58,30.99,11.24-4.84-2.36-11.1-5.84-17.4-10.55-17.45-13.05-26.68-29.34-26.69-47.1h5.2c.02,38.98,49.03,56.4,49.53,56.57l8.63,2.99-8.9,2.01c-4.04.91-7.89,1.31-11.53,1.31Z"/>
      <path class="cls-7" d="M81.7,317.76c-1.4-1.3-34.47-32.27-44.56-69.76l5.02-1.35c9.7,36.02,42.75,66.99,43.08,67.3l-3.53,3.81Z"/>
      <g>
        <path class="cls-3" d="M79.8,16.63s66.32,104.58,183.4,115.63c0,0,11.83-65.27-38.88-105.33C173.61-13.12,95.45,5.84,79.8,16.63Z"/>
        <path class="cls-7" d="M265.31,135.05l-2.36-.22c-61.17-5.78-108.3-37.23-137.07-62.6-31.13-27.45-48.1-53.96-48.27-54.22l-1.33-2.1,2.05-1.41C90.34,6.23,118.46.93,138.81.14c24.24-.95,59.03,2.59,87.1,24.77,26.85,21.21,36.25,49.4,39.4,69.31,3.41,21.51.54,37.82.42,38.51l-.42,2.33ZM83.45,17.44c4.69,6.83,20.5,28.59,45.98,51.03,27.79,24.48,73.03,54.74,131.57,60.98.64-5.21,1.77-18.53-.8-34.6-3.03-18.95-11.99-45.76-37.48-65.89C174.68-9,101.99,7.45,83.45,17.44Z"/>
      </g>
      <path class="cls-7" d="M262.83,134.83c-23.05-3.29-54.93-25.93-94.75-67.28-29.46-30.59-52.58-60.63-52.81-60.93l4.12-3.17c.91,1.19,91.67,118.73,144.17,126.23l-.73,5.15Z"/>
      <path class="cls-7" d="M263.19,129.55c-12.81-6.71-32.44-29.7-58.34-68.34-19.15-28.58-34.85-55.6-35-55.87l4.5-2.61c.16.27,15.78,27.16,34.84,55.6,25.04,37.36,44.55,60.4,56.41,66.6l-2.41,4.61Z"/>
    </g>
  </g>
</svg>